<?xml version="1.0" encoding="utf-8"?>
<!-- Generator: Adobe Illustrator 18.1.1, SVG Export Plug-In . SVG Version: 6.00 Build 0)  -->
<svg version="1.1" id="Capa_1" xmlns="http://www.w3.org/2000/svg" xmlns:xlink="http://www.w3.org/1999/xlink" x="0px" y="0px"
	 viewBox="0 0 1207.6 1200" enable-background="new 0 0 1207.6 1200" xml:space="preserve">
<path fill="#FDC570" d="M568.5,5.4h32.6c0,16.4,0.2,32.9,0,49.3c-95.8,0.7-191.3,26.7-273.8,74.7c-1.2-3.6-2.7-7-4.8-10.3
	c-6.9-11.3-13-22.9-20.2-34.1c53.9-31.4,113-53.7,174.1-66.8C506.7,11.5,537.6,8,568.5,5.4z"/>
<path fill="#AAD470" d="M601.1,5.4h28.4c72.7,3.1,145.1,19.8,211.6,49.6c19.4,8.5,38.2,18.5,56.9,28.9
	c-8.2,14.1-16.2,28.6-24.5,42.6C791.1,78.5,696,53.6,601.1,54.6C601.1,38.3,601.1,21.7,601.1,5.4z"/>
<path fill="#FEFBFC" d="M527.8,24.4c5.1-0.7,10.1-1.5,15.3-2.1c0.1,1.2,0.4,3.4,0.6,4.6c-2.8,0.3-5.7,0.6-8.3,0.9
	c-0.6,5.5,5.1,2.5,8.3,2.7c0.1,1.5,0.4,2.8,0.7,4.3c-2.5,0.4-5.1,0.9-7.6,1.3c0.3,2.4,0.6,4.9,0.9,7.3c2.8-0.3,5.5-0.6,8.3-0.9
	c0,1,0,3.3,0.1,4.3c-4.8,0.7-9.7,1.5-14.6,1.9C530.2,40.8,528.8,32.6,527.8,24.4z"/>
<path fill="#FEFBFC" d="M504.7,28.1c5.5-0.4,11.9-3.4,17.1-0.3c4.3,3.1,3.1,9.1,0.1,12.8c2.8,2.7,5.7,5.5,8.2,8.5
	c-2.5,0.4-5.2,0.9-7.7,1.2c-2.4-2.8-5.1-5.5-7.7-7.7c0.4,2.8,0.9,5.7,1.3,8.5c-2.2,0.6-4.5,1.2-6.6,1.8
	C507.6,44.8,506.2,36.5,504.7,28.1z"/>
<path fill="#FEFBFC" d="M698.1,25c5.4,0.6,10.6,1.3,15.9,2.4c-0.1,1.2-0.6,3.4-0.7,4.6c-2.8-0.4-5.7-0.9-8.5-1.3
	c-0.1,0.9-0.3,2.5-0.4,3.4c2.5,0.4,5.1,0.9,7.7,1.3c-0.3,1-0.6,3.3-0.9,4.3c-2.5-0.3-5.1-0.7-7.6-1c-0.3,2.5-0.7,4.9-1,7.4
	c2.7,0.4,5.2,0.9,7.9,1.2c-0.1,1.2-0.3,3.4-0.4,4.6c-5.1-0.7-10-1.5-15-2.2C696,41.5,697.2,33.2,698.1,25z"/>
<path fill="#FEFBFC" d="M717.5,27.8c3,0.6,6.1,1,9.1,1.6c1.6,5.8,3.3,11.6,4.8,17.4c0.9-5.4,1.9-10.6,3.1-15.8
	c2.1,0.4,4.3,1,6.6,1.5c-1.9,8.2-3.6,16.2-5.7,24.4c-3-0.7-5.8-1.3-8.6-2.1c-1.3-5.8-3-11.6-4.5-17.6c-0.9,5.4-1.8,10.7-3,16.2
	c-1.5-0.3-4.6-0.9-6.3-1.2C714.7,44.2,715.8,36,717.5,27.8z"/>
<path fill="#FEFBFC" d="M481.9,32.8c5.7-0.9,11.8-3.6,17.4-1.5c4,1.9,3.1,7,1.2,10.1c4.9,1.6,6,9.2,1.3,11.9
	c-4.5,2.4-9.7,2.7-14.4,3.9C485.5,49,483.7,40.9,481.9,32.8z"/>
<path fill="#FDC570" d="M512.6,31c3.6-0.3,5.4,2.5,5.5,5.8c-1.3,0.9-2.7,1.8-4,2.7C513.5,36.6,513.1,33.8,512.6,31z"/>
<path fill="#FEFBFC" d="M467.5,36c3-0.6,5.8-1.3,8.8-2.1c1.8,8.2,4.2,16.4,5.2,24.7c-1.5,0.3-4.5,0.7-6,1
	c-1.2-5.1-2.4-10.1-3.7-15.2c0,5.4,0.1,10.7,0,16.2c-2.1,0.4-4.3,1-6.4,1.5c-2.4-4.3-4.6-8.6-7.1-13c1,4.6,2.4,9.2,3.6,14
	c-2.1,0.6-4,1-6,1.6c-2.2-8-4.3-16.1-6.6-24.1c3-0.7,6-1.6,8.9-2.4c3,5.1,5.7,10.1,8.6,15C467.1,47.6,467.2,41.8,467.5,36z"/>
<path fill="#FDC570" d="M490,35.7c1-0.1,3-0.4,4-0.6c0.4,1.3,0.9,2.8,1.3,4.2c-1.3,0.7-2.8,1.5-4.2,2.1
	C490.7,39.5,490.3,37.5,490,35.7z"/>
<path fill="#FEFBFC" d="M746.5,34c5.2,1.2,10.4,2.5,15.5,4c-0.3,1.2-0.9,3.3-1.2,4.5c-2.7-0.7-5.5-1.5-8.2-2.2
	c-0.1,0.9-0.6,2.5-0.9,3.3c2.4,0.7,4.8,1.3,7.3,2.1c-0.1,1-0.6,3.3-0.7,4.5c-2.7-0.6-5.2-1.2-7.7-1.9c-0.6,2.5-1.2,4.9-1.8,7.4
	c2.5,0.6,5.2,1.3,7.7,1.9c-0.3,1.2-0.9,3.4-1,4.5c-4.9-1.3-9.8-2.7-14.7-3.9C742.6,50.2,744.4,42,746.5,34z"/>
<path fill="#FEFBFC" d="M758.3,63c2.2-8,4.6-16.1,7-24c5.1,1.8,10.7,2.4,14.9,6.1c4.2,4.6,0.3,11.3-4.8,13c1.3,3.7,2.4,7.6,3.4,11.5
	c-2.5-0.7-4.9-1.6-7.4-2.4c-0.9-3.4-1.9-6.8-3-10.3c-1.9,2.4-2.5,5.4-3.3,8.2C762.7,64.3,760.5,63.7,758.3,63z"/>
<path fill="#FEFBFC" d="M431.5,46c4.9-1.5,9.7-3.1,14.7-4.2c0.3,1,1.2,3.1,1.5,4.2c-2.7,0.7-5.4,1.6-8,2.4c0.1,0.9,0.6,2.5,0.7,3.3
	c2.5-0.6,4.9-1.3,7.4-1.9c0.4,1.3,0.7,2.8,1.2,4.2c-2.4,0.7-4.8,1.5-7.3,2.2c0.6,2.4,1.3,4.8,1.9,7.1c2.7-0.7,5.2-1.3,7.9-2.1
	c0.3,1,0.9,3.3,1.2,4.3c-4.8,1.3-9.5,2.8-14.4,4.2C436.1,61.8,433.7,53.9,431.5,46z"/>
<path fill="#FDC570" d="M491.9,45.4c1.2,0,3.4,0,4.6,0.1c0.4,0.9,1.2,2.5,1.5,3.4c-1.5,1-3.1,1.8-4.8,2.5
	C492.8,49.4,492.4,47.5,491.9,45.4z"/>
<path fill="#AAD470" d="M771.4,45.1c5.4,1.6,3,10-2.5,8C769.6,50.5,770.5,47.8,771.4,45.1z"/>
<path fill="#FEFBFC" d="M420,49.4c2.2-0.7,4.6-1.5,6.8-2.4c2.5,8,5.1,15.9,7.4,24c-2.2,0.7-4.5,1.3-6.7,2.1
	C425.2,65.2,422.5,57.3,420,49.4z"/>
<path fill="#FEFBFC" d="M788.9,50.3c5.5-2.4,12.2-0.1,16.4,3.9c4.2,4.6,2.5,11.6-0.7,16.2c-5.8,9.1-22.8,3.4-22.5-7.1
	C782.2,58.4,784.5,52.9,788.9,50.3z"/>
<path fill="#FEFBFC" d="M402.3,58.1c3-4.8,8.9-5.8,14.1-6c-0.1,1.2-0.3,3.7-0.4,4.9c-2.5,0.6-6.6-0.4-7.7,2.7
	c-1.3,4,0.7,8.5,3.1,11.8c2.8,3.4,6.7-0.7,9.5-2.1c0.6,1.6,1,3.3,1.5,4.8c-4.3,2.7-9.8,5.2-14.7,2.7C402,72.8,399.3,64.3,402.3,58.1
	z"/>
<path fill="#AAD470" d="M793.7,55.4c2.5-2.4,7.3,0.3,7,3.6c-0.3,4.3-2.2,9.2-6.4,11.2C786.4,69.2,789.4,59,793.7,55.4z"/>
<path fill="#FEFBFC" d="M387.7,60.7c2.2-0.7,4.5-1.6,6.7-2.4c3,7.7,5.8,15.6,8.6,23.5c-2.2,0.7-4.3,1.6-6.6,2.4
	C393.5,76.4,390.4,68.6,387.7,60.7z"/>
<path fill="#FEFBFC" d="M363.9,70.3c5.4-2.2,10.7-5.5,16.8-4.6c9.1,2.2,12.5,16.2,4.9,22c-3.6,2.5-7.9,3.9-11.9,5.7
	C370.4,85.6,367.2,78,363.9,70.3z"/>
<path fill="#FDC570" d="M372.4,71.8c8.5-5.2,15,11.8,6.4,14.9C376.4,81.7,374.5,76.7,372.4,71.8z"/>
<path fill="#44BB7B" d="M897.8,83.8c45.1,25.5,86.4,57.6,123.3,93.9c36.5,36.6,68.8,77.6,94.4,122.4c-7.6,3.1-14.4,7.6-21.4,11.6
	c-7,4.2-14.4,7.9-21,12.8c-47.8-82-117.6-151.1-200.1-198.3C881.5,112.4,889.4,98,897.8,83.8z"/>
<path fill="#F68C5A" d="M120.6,248.6C169,182.4,231.4,126.6,302.2,85c7,11.2,13.1,22.8,20,34.1c1.9,3.1,3.4,6.7,4.8,10.3
	c-82,47.9-151,117.9-198,200.5c-14.9-8.3-30.1-16.5-44.4-26.1C95.7,285,107.5,266.4,120.6,248.6z"/>
<path fill="#FEFBFC" d="M256.2,130.7c4.2-3.1,8.2-6.4,12.4-9.4c0.7,0.9,2.1,2.8,2.7,3.7c-2.2,1.6-4.3,3.4-6.6,5.1
	c1.9,5.2,5.7-0.9,8.2-1.9c0.9,1.2,1.8,2.5,2.8,3.7c-1.9,1.5-3.9,3-6,4.5c1.5,1.9,3,4,4.6,6c2.1-1.6,4.3-3.1,6.6-4.8
	c0.6,0.9,2.1,2.8,2.7,3.7c-4,3-7.9,6.1-11.9,9.1C266.5,143.8,261.3,137.3,256.2,130.7z"/>
<path fill="#FEFBFC" d="M238.1,145.3c4.8-3.4,9.2-9.8,15.9-8.6c4.5,1.5,6.1,6.6,5.4,10.9c3.9,1,7.7,2.2,11.6,3.4
	c-2.1,1.5-3.9,3.7-6.4,4.6c-3.6-0.7-7-1.9-10.4-2.8c1.8,2.4,3.6,4.9,5.5,7.1c-1.8,1.5-3.6,3-5.4,4.6
	C248.9,158.1,243.4,151.9,238.1,145.3z"/>
<path fill="#FEFBFC" d="M937.4,160.1c5.1-6.7,10-13.3,15.2-20c4.2,3.1,8.3,6.3,12.4,9.7c-0.6,0.9-1.8,2.8-2.4,3.9
	c-2.4-1.8-4.8-3.6-7-5.4c-1.2,1.3-2.2,2.8-3.3,4.2c2.1,1.6,4.2,3.4,6.1,5.1c-1,1.2-1.9,2.4-3,3.6c-2.1-1.6-4-3.1-6.1-4.8
	c-2.1,2.7-4.3,5.4-6.6,7.9C940.8,162.9,939.2,161.4,937.4,160.1z"/>
<path fill="#F68C5A" d="M246.7,144.1c0.7-0.4,2.4-1.3,3.1-1.8c2.7,1.9,5.1,5.2,2.4,8.3C250.3,148.4,248.4,146.4,246.7,144.1z"/>
<path fill="#FEFBFC" d="M220.8,160.5c4.3-3.6,8-8.8,14-9.7c4.6-0.6,7.1,4.6,6.1,8.5c4.8-1.2,9.4,3.4,7.7,8.2
	c-1.9,5.2-7.3,8-11.2,11.8C231.8,173,226.2,166.8,220.8,160.5z"/>
<path fill="#FEFBFC" d="M951.5,171.1c5.4-6.4,10.4-13,15.8-19.4c4.2,3.4,8.5,6.6,12.2,10.6c-0.7,0.7-2.4,2.2-3.3,3
	c-2.7-1.6-5.5-7.1-8.6-3.1c1.9,1.9,4,3.7,6.1,5.7c-1,1-2.1,2.2-3.1,3.3c-1.9-1.6-3.9-3.1-5.7-4.8c-1.6,1.9-3.3,3.9-4.8,5.8
	c2.1,1.8,4,3.4,6.1,5.2c-1,1.2-1.9,2.4-3,3.6C959.3,177.6,955.4,174.3,951.5,171.1z"/>
<path fill="#F68C5A" d="M229.1,159.2c1.5-1,3-3,4.9-1.5c1.8,2.1,0.3,4-1,5.8C231.8,162.1,230.5,160.6,229.1,159.2z"/>
<path fill="#FEFBFC" d="M209.6,170.5c2.4-1.9,4.3-4.6,7.1-5.8c5.7,6,11.3,12.1,16.7,18.3c-1.6,1.3-3.1,2.7-4.8,4
	c-3.4-3.4-6.7-7-10-10.6c2.4,4.5,4.8,8.9,7.1,13.4c-1.6,1.5-3.1,3-4.8,4.5c-4-2.5-8.2-5.2-12.4-7.7c3.3,3.4,6.6,6.8,9.7,10.4
	c-1.5,1.3-3,2.7-4.5,4.2c-6-6-12.1-11.6-17.6-17.9c2.2-2.1,4.5-4,6.6-6.1c5.1,2.8,9.8,5.8,14.7,8.8
	C215,180.6,212.3,175.5,209.6,170.5z"/>
<path fill="#F68C5A" d="M235.5,166.5c2.7-1.8,5.7-2.5,7.3,0.9c-0.7,0.9-2.2,2.8-3,3.7C238.5,169.6,237,168.1,235.5,166.5z"/>
<path fill="#FEFBFC" d="M965.5,182.7c5.5-6.1,10.9-12.5,16.5-18.8c4.3,4.2,10.6,7.6,11.9,14c-0.1,4-4.3,6-7.9,6.1
	c1.2,4.3-2.1,9.4-6.8,8.5C973.4,191.5,969.7,186.4,965.5,182.7z"/>
<path fill="#44BB7B" d="M984.4,172.3c0.9,1.5,4,3.6,1.6,5.2c-1.5,2.2-3.9,0-5.5-0.6C981.9,175.2,983.2,173.8,984.4,172.3z"/>
<path fill="#FEFBFC" d="M999.5,179.7c3.9,4.5,10.4,8,10.4,14.7c-0.7,4.9-5.8,6.8-10.3,6.8c-0.7,4-1.5,7.9-2.2,11.9
	c-1.8-2.1-3.7-4-5.5-6.1c0.7-3.4,1.5-6.8,1.8-10.3c-2.4,1.8-4.6,3.9-6.7,6c-1.6-1.5-3.3-3.1-4.9-4.6
	C987.7,191.8,993.7,185.8,999.5,179.7z"/>
<path fill="#44BB7B" d="M973.9,184.3c1.2-1.5,2.5-3,3.7-4.5c0.7,0.9,2.4,2.7,3.1,3.4C979.4,186.9,976.1,187,973.9,184.3z"/>
<path fill="#FEFBFC" d="M183.1,196.4c3.6-3.7,7.3-7.3,10.9-10.9c1.2,1.2,2.2,2.2,3.4,3.4c-1.9,1.9-3.9,3.9-5.7,5.8
	c0.6,0.6,1.6,1.6,2.2,2.2c1.8-1.8,3.7-3.6,5.5-5.4c1,1.2,2.2,2.2,3.3,3.4c-1.8,1.8-3.6,3.6-5.2,5.5c1.8,1.8,3.4,3.6,5.2,5.2
	c1.9-1.9,3.9-3.9,5.8-5.8c1,1,2.1,2.2,3.1,3.3c-3.6,3.6-7,7.1-10.6,10.6C195.2,208,188.9,202.3,183.1,196.4z"/>
<path fill="#44BB7B" d="M995.9,194c1.8-2.1,3.7-4,5.5-6c0.6,0.9,1.8,2.5,2.4,3.4C1002,194.3,999,196.8,995.9,194z"/>
<path fill="#FEFBFC" d="M998.1,213.9c5.7-6.1,12.1-11.6,17.9-17.6c3.7,3.7,7.3,7.6,11,11.5c-1.3,1-2.5,1.9-3.9,3
	c-1.8-2.1-3.7-4-5.5-6.1c-0.6,0.6-1.8,1.9-2.4,2.5c1.6,1.8,3.4,3.6,5.1,5.4c-0.7,0.9-2.2,2.5-3,3.3c-1.9-1.8-3.9-3.7-5.7-5.7
	c-1.8,1.6-3.6,3.4-5.2,5.1c1.8,2.1,3.6,4,5.4,6.3c-0.7,0.7-2.4,2.2-3.3,2.8C1005.1,221.2,1001.7,217.5,998.1,213.9z"/>
<path fill="#FEFBFC" d="M175,204.9c1.6-1.6,3.4-3.4,5.1-5.1c6.3,5.7,12.4,11.5,18.2,17.6c-1.6,1.6-3.3,3.1-4.9,4.8
	C187.2,216.5,181.1,210.7,175,204.9z"/>
<path fill="#FEFBFC" d="M173.3,206.7c4.6,7.4,8.5,15.3,13.1,22.6c-1.8,2.1-3.6,4.2-5.4,6.1c-7.9-3.7-15.9-7.1-24-10.7
	c1.6-2.1,3.4-4,5.1-6.1c5.1,2.4,10,4.9,14.9,7.4c-3.1-4.5-6.1-9.1-9.1-13.7C169.7,210.7,171.5,208.7,173.3,206.7z"/>
<path fill="#FEFBFC" d="M1010.5,227.2c6.3-5.7,12.4-11.2,18.6-16.8c3.9,4.8,10.7,9.4,9.1,16.2c-1.5,4.3-6.4,5.4-10.4,5.1
	c-1,3.9-1.9,7.6-3.1,11.5c-1.8-1.9-3.4-3.9-5.1-6c1-3.6,1.9-7,2.8-10.6c-2.4,1.6-4.6,3.4-6.7,5.4
	C1013.8,230.6,1012.1,229,1010.5,227.2z"/>
<path fill="#44BB7B" d="M1025.7,225c-0.4-3.1,3.6-4.2,5.2-6.3c0.4,0.9,1.3,2.8,1.8,3.9C1030.7,224.2,1028.3,227.6,1025.7,225z"/>
<path fill="#FEFBFC" d="M153.5,230.8c6.1-3.1,12.8,1.5,16.1,6.6c5.7,8.8-5.2,21.6-14.7,17.7c-4.9-2.2-9.8-6.7-9.7-12.5
	C145.6,237.5,149,233,153.5,230.8z"/>
<path fill="#FEFBFC" d="M1039.4,232.6c10-3.4,20.5,10.9,13.7,19.2c-3.4,4.2-9.4,7.9-14.9,5.7c-6.3-2.5-10.9-10.1-8.2-16.8
	C1032.1,237,1035.5,234,1039.4,232.6z"/>
<path fill="#F68C5A" d="M153.4,236.7c4.5-1.9,8.5,2.8,11,6c3,3.7-2.5,9.1-6.1,6C154.1,246.7,147.7,240.5,153.4,236.7z"/>
<path fill="#44BB7B" d="M1042.2,239.4c2.5-1.6,5.4-0.7,6.8,1.6c1.8,3.4-1.8,6.4-4.3,8.3c-2.5,2.2-7.1,3.9-9.1,0.1
	C1033.4,244.9,1038.8,241.3,1042.2,239.4z"/>
<path fill="#FEFBFC" d="M133.7,252.8c1.3-1.6,2.7-3.3,4-5.1c6.6,5.1,13,10.4,19.5,15.6c-1.8,2.2-3.4,4.5-5.1,6.7
	c-6.1-1-12.2-2.4-18.3-3.9c4.6,3.1,8.9,6.6,13.3,10c-1.2,1.6-2.5,3.3-3.7,4.9c-6.8-4.9-13.4-10.1-20.1-15c1.8-2.4,3.7-4.9,5.7-7.3
	c5.8,1.2,11.6,2.4,17.3,3.7C142,259.4,137.9,256.2,133.7,252.8z"/>
<path fill="#4FBEB7" d="M1094,311.9c7-4.2,13.8-8.6,21.4-11.6c38.9,67.1,64.9,141.7,75.2,218.7c3.9,26.8,4.9,53.9,5.8,81
	c-16.4,0.6-32.8,0.1-49.1,0.1c0.1-96.2-25.5-192.4-74.3-275.4C1079.6,319.8,1087,316.1,1094,311.9z"/>
<path fill="#F2565A" d="M7,557.7c6.3-89,32.6-176.7,77.4-253.8c14.3,9.4,29.3,17.6,44.4,26.1c-46.6,81.4-71.3,174.9-71.3,268.7
	c-17.1,0.6-34.4-0.7-51.5,0.6L5.5,600v-15C5.8,575.9,6.9,566.8,7,557.7z"/>
<path fill="#FEFBFC" d="M62.8,370c1.5,0.4,3,1,4.5,1.5c-1,2.5-2.1,5.2-3.1,7.7c0.7,0.3,2.4,0.9,3.3,1.2c1-2.4,1.9-4.6,3-7
	c1,0.4,3.1,1.2,4.2,1.6c-0.9,2.4-1.9,4.8-2.8,7.1c2.2,0.9,4.6,1.9,6.8,2.8c1-2.4,2.1-4.9,3.1-7.3c1,0.4,3.3,1.2,4.3,1.6
	c-1.9,4.6-3.7,9.4-5.7,14c-7.7-3-15.5-6.1-23.2-9.1C59,379.5,60.9,374.7,62.8,370z"/>
<path fill="#FEFBFC" d="M1120.1,389.9c7.6-3.3,15.3-6.6,23.1-9.7c1.2,2.8,2.4,5.8,3.6,8.8c-4.6,3.6-9.2,7.1-14,10.4
	c5.8-0.6,11.6-1.2,17.6-1.6c1,3,2.1,6,3.1,8.8c-7.9,2.7-15.6,5.7-23.5,8.3c-0.7-2.1-1.5-4-2.2-6.1c4.9-1.8,9.8-3.6,14.7-5.4
	c-5.4,0.4-10.7,1-16.1,1.8c-0.9-2.1-1.6-4-2.5-6c3.9-3,7.9-5.8,11.8-8.8c-4.5,1.8-8.8,3.6-13.1,5.2
	C1121.5,393.8,1120.8,391.9,1120.1,389.9z"/>
<path fill="#FEFBFC" d="M56.6,391.4c4.9-2.4,9.8,1.3,11.8,5.8c3.9-0.9,7.6-1.9,11.5-2.8c-0.9,2.4-1.8,4.9-2.7,7.3
	c-3.6,0.7-7.1,1.5-10.4,3c2.7,1.2,5.5,2.2,8.2,3.3c-0.9,2.1-1.6,4.3-2.4,6.6c-7.9-2.7-15.8-5.5-23.7-8.2
	C51.1,401.4,51.7,394.8,56.6,391.4z"/>
<path fill="#F2565A" d="M55.2,400.9c1.8-5.5,9.4-2.7,8.5,2.5C60.9,402.9,58.1,402,55.2,400.9z"/>
<path fill="#FEFBFC" d="M48.4,413c3.7-3,8.6,0.3,10,4.3c0.7-0.6,2.1-1.8,2.8-2.4c2.7,0.7,6.4,0.6,7.3,3.9c2.1,5.8-1.6,11.5-2.8,17
	c-8.2-1.9-16.1-4.6-24.1-7.1C43.6,423.4,44.2,417,48.4,413z"/>
<path fill="#FEFBFC" d="M1130.6,417.8c8.9,0.1,17.7-0.3,26.7,0.3c0.9,3,1.8,6,2.7,8.8c-7,5.4-14.3,10.4-21.6,15.3
	c-0.7-2.4-1.5-4.8-2.2-7.3c1.8-1,3.7-2.1,5.5-3c-0.7-2.5-1.5-5.1-2.4-7.6c-2.1,0.1-4.2,0.3-6.3,0.6
	C1132.1,422.5,1131.4,420.2,1130.6,417.8z"/>
<path fill="#F2565A" d="M50.3,418.8c1.3,0.7,2.8,1.3,4.2,2.1c-0.1,0.9-0.4,2.8-0.6,3.9c-1.9-0.6-3.9-1-5.7-1.6
	C48.8,421.6,49.6,420.3,50.3,418.8z"/>
<path fill="#F2565A" d="M57.8,426c1.2-1.5,1.8-4.5,4.3-3.7c3.3-0.1,1.9,3.9,1.5,5.7C61.5,427.3,59.6,426.7,57.8,426z"/>
<path fill="#4FBEB7" d="M1144.2,424.9c3-0.7,6-0.9,9.1-0.9c-2.5,1.6-4.9,3.3-7.4,5.1C1145.4,428,1144.5,426,1144.2,424.9z"/>
<path fill="#FEFBFC" d="M40.2,433.6c5.4,1.5,11,2.8,16.2,4.8c10,3.3,5.7,21.3-4.6,20c-5.8-0.9-11.5-2.5-17.1-4.2
	c0.6-2.2,1.2-4.6,1.8-6.8c5.7,1.3,11,3.1,16.7,4.2c3.4,1.2,3.4-3.3,3.9-5.4c-6.1-2.4-12.5-3.7-18.8-5.7
	C39,438.2,39.6,435.8,40.2,433.6z"/>
<path fill="#FEFBFC" d="M1138.5,443.5c8-2.4,16.1-4.6,24.1-6.8c1.2,5.7,4.5,11.9,1.8,17.6c-2.8,4.2-8.9,3.6-12.5,0.9
	c-1.9,2.2-4,4.5-6.1,6.6l1.5,0.7c-1.9,0-4-0.1-6-0.1l1.8-0.4c-3.9-6.1,3.1-9.4,6-13.8c-3,0.6-6,1.2-8.8,1.9
	C1139.9,448,1139.3,445.8,1138.5,443.5z"/>
<path fill="#4FBEB7" d="M1152.1,447c2.8-0.9,5.5-1.6,8.3-2.2C1161.6,450.2,1153.9,452.3,1152.1,447z"/>
<path fill="#FEFBFC" d="M33.8,458c1,0.3,3.3,0.7,4.3,0.9c-0.3,1.8-0.7,3.6-1,5.5c6.7,1.5,13.3,3,19.8,4.8c-0.6,2.2-1,4.5-1.6,6.7
	c-6.6-1.5-13.3-2.8-19.8-4.5c-0.4,1.9-0.9,3.7-1.3,5.7c-1-0.3-3.1-0.7-4.2-1C30.7,469.9,32.3,463.9,33.8,458z"/>
<path fill="#FEFBFC" d="M1163.7,459.3c1-0.1,3.1-0.6,4.2-0.9c2.2,6.4,3,13.1,4.5,19.7c-7.9,0.7-14.7-4.8-22-6.8
	c0.7,3.6,1.3,7.1,1.9,10.7c-1.2,0.3-3.3,0.7-4.5,0.9c-1.2-6.4-2.4-12.8-4.2-19.1c7.9-1.5,14.9,4,22.5,6
	C1165.3,466.3,1164.4,462.9,1163.7,459.3z"/>
<path fill="#FEFBFC" d="M28.5,493.3c-2.4-4.9-0.3-10.6,2.1-15c1.3,1,2.7,1.9,4.2,3c-0.7,1.8-1.6,3.4-2.4,5.2
	c0.6,1.5,1.3,2.8,1.9,4.3c3.6,1.2,7.4,3,11.3,1.5c3.6-1.6,2.2-6.1,2.4-9.1c1.2,0.1,3.6,0.6,4.8,0.9c0.3,5.5-0.1,12.4-6,15
	C40.4,501,31.9,499.4,28.5,493.3z"/>
<path fill="#FEFBFC" d="M1158.5,482.5c4.9-1.2,11.3-0.9,14.3,4c3.4,5.8,3.7,15.5-3.3,18.8c-5.1,2.2-11.8,2.7-16.1-1.3
	C1147.3,497.7,1148.6,484.3,1158.5,482.5z"/>
<path fill="#4FBEB7" d="M1159.5,489.7c3.1-0.9,7.1-1.5,9.5,1.2c2.1,2.8,0.1,7-3.3,7.4c-3.6,1-9.4,2.2-11.2-2.1
	C1153,492.8,1156.5,490.3,1159.5,489.7z"/>
<path fill="#FEFBFC" d="M30.1,502c6.3-1.8,14.9,0,17.4,6.7c1.5,5.8,0.3,13.8-5.8,16.5c-6.1,2.1-14.4,0.9-17.7-5.4
	C21.8,513.8,23.2,504.7,30.1,502z"/>
<path fill="#F2565A" d="M27.6,511.3c4-3.6,10.1-3,14.4-0.3c3.1,2.1,1.3,7.3-2.2,7.7C34.7,519.6,26.7,518,27.6,511.3z"/>
<path fill="#F140AA" d="M6,599.3c17.1-1.3,34.4,0,51.5-0.6c-0.3,95.4,25,190.9,73,273.3c-14.7,8.8-29.6,17.6-44.7,25.9
	c-24.4-42.7-44.1-88.3-57.3-135.6C13.4,709.3,5.8,654.3,6,599.3z"/>
<path fill="#5DBEE9" d="M1147.3,600.2c16.4,0,32.8,0.3,49.1-0.1v1.2v18.2c-1.3,11.2-1.2,22.3-2.4,33.5
	c-7.6,85.5-33.6,169.4-77,243.6c-14-8.6-28.3-16.8-42.7-24.7C1122.1,789.7,1147.3,694.8,1147.3,600.2z"/>
<path fill="#FEFBFC" d="M38,639.8c1.2-0.1,3.4-0.3,4.5-0.4c0.6,4.9,1.3,9.8,1.8,14.7c-8.2,1-16.4,2.7-24.7,3.4
	c-0.4-5.1-1.2-10.1-1.9-15c1.2-0.1,3.4-0.6,4.6-0.7c0.4,2.8,0.7,5.5,1.2,8.3c0.9-0.1,2.5-0.4,3.4-0.6c-0.3-2.5-0.7-5.1-1-7.4
	c0.9-0.1,2.8-0.4,3.9-0.6c2.1,1.6,1,5.1,1.8,7.4c2.5-0.3,4.9-0.7,7.4-1C38.6,645.1,38.3,642.4,38,639.8z"/>
<path fill="#FEFBFC" d="M36,663.3c2.8-2.8,5.7-5.5,8.6-8c0.4,2.5,0.9,5.2,1.2,7.7c-2.8,2.4-5.5,4.9-7.9,7.7c3-0.4,6-0.9,8.9-1.3
	c0.4,2.2,0.9,4.6,1.2,6.8c-8.2,1.5-16.4,2.8-24.6,4.3c-0.7-5.4-2.7-11-0.7-16.2C25.3,659.3,32.2,660.2,36,663.3z"/>
<path fill="#F140AA" d="M26.4,672.8c-1.2-5.8,7.1-6.8,8.5-1.6C32,671.8,29.2,672.4,26.4,672.8z"/>
<path fill="#FEFBFC" d="M36.3,684.6c2.1-2.8,5.7-5.5,9.2-3.7c6,3.4,5.1,11.3,6.7,17.1c-8.2,1.8-16.4,3.4-24.4,5.2
	c-0.9-5.7-3.6-11.8-1.3-17.4C28.6,682.2,33.2,682.6,36.3,684.6z"/>
<path fill="#F140AA" d="M40.4,689c1.8-0.4,4-2.7,5.1-0.1c0.3,0.7,0.9,2.2,1.2,3c-1.8,0.4-3.7,0.9-5.5,1.5
	C40.8,691.9,40.5,690.5,40.4,689z"/>
<path fill="#F140AA" d="M30.5,695.3c-0.6-3.4,0.9-5.7,4.5-5.1c0.6,1.3,1,2.7,1.6,4C34.6,694.5,32.5,694.8,30.5,695.3z"/>
<path fill="#FEFBFC" d="M1148.9,695.7c7.9,3.9,15.8,7.7,23.7,11.9c-0.6,3.1-1,6.4-1.6,9.5c-8.6,1.6-17.4,3-26.1,4.2
	c0.4-2.4,0.7-4.9,1.2-7.3c2.1-0.3,4.2-0.4,6.3-0.6c0.4-2.7,0.7-5.2,1.2-7.9c-1.9-0.7-4-1.5-6-2.2
	C1148,700.8,1148.5,698.3,1148.9,695.7z"/>
<path fill="#FEFBFC" d="M29,708.7c8.2-1.6,16.2-3.6,24.4-5.2c0.4,2.1,0.9,4.2,1.3,6.3c-5.4,1.2-10.6,2.4-15.8,3.6
	c5.7-0.3,11.2-0.3,16.8,0.3c0.4,2.1,0.9,4.2,1.3,6.3c-4.6,2.2-9.1,4.6-13.5,7.1c4.9-1.2,9.7-2.5,14.6-3.7c0.4,1.9,0.9,4,1.5,6.1
	c-8,2.1-16.1,4.2-24.3,6.3c-0.7-3-1.5-6-2.2-8.8c4.9-2.8,10.1-5.7,15-8.5c-5.7-0.1-11.3-0.4-17.1-0.4
	C30.4,714.8,29.6,711.8,29,708.7z"/>
<path fill="#5DBEE9" d="M1158,707.9c2.7,1.2,5.4,2.4,8,3.7c-3,0.4-6,0.7-8.8,1.2C1157.4,711.5,1157.9,709.1,1158,707.9z"/>
<path fill="#FEFBFC" d="M1144.6,722.7c8.2,1.5,16.2,3.1,24.4,4.8c-1.5,5.7-1.3,12.7-5.8,17.1c-3.7,3-8.2-0.3-10-3.7
	c-0.7,0.6-1.9,1.9-2.7,2.5c-3.1,0-7.1-0.6-8-4.3C1141.2,733.6,1143.6,728,1144.6,722.7z"/>
<path fill="#5DBEE9" d="M1147.3,730.3c1.9,0.4,3.9,1,6,1.6c-0.6,1.3-1.3,2.8-1.9,4.2c-0.9,0-2.8-0.1-3.7-0.1
	C1147.5,734,1147.5,732.1,1147.3,730.3z"/>
<path fill="#FEFBFC" d="M56.1,733.8c1-0.4,3.1-1.3,4-1.8c1.5,4.9,2.8,9.8,4,14.7c-7.9,2.4-16.1,4.5-24,6.8c-1.5-4.9-2.8-10-4-15
	c1.5-0.3,3-0.6,4.5-0.9c0.7,2.5,1.3,5.2,2.1,7.7c0.9-0.3,2.5-0.9,3.3-1.2c-0.6-2.5-1.3-4.9-1.9-7.4c1.2-0.1,3.3-0.6,4.5-0.7
	c0.6,2.4,1.3,4.6,1.9,7c2.4-0.6,4.9-1.3,7.3-1.9C57.3,738.8,56.4,736.4,56.1,733.8z"/>
<path fill="#5DBEE9" d="M1159.4,738c-2.4-0.9-2.1-3.4-2.1-5.4c1.5,0.3,4.5,0.7,6,1C1162.3,735.3,1162.2,739.2,1159.4,738z"/>
<path fill="#FEFBFC" d="M1139.6,744.6c8,2.1,16.1,4.2,24.1,6.4c-1.9,5.7-2.1,13-7.4,16.4c-4.8,1.8-9.5-1.2-11.2-5.7
	c-3.9,1.2-7.6,2.4-11.5,3.6c0.7-2.5,1.5-5.1,2.2-7.4c3.6-1,7-2.2,10.4-3.6c-2.8-1-5.8-1.9-8.6-2.8
	C1138.2,749,1138.8,746.8,1139.6,744.6z"/>
<path fill="#FEFBFC" d="M41.4,758.1c7.9-2.2,15.8-4.8,23.8-6.7c1.5,1.8,1.5,4.5,2.4,6.6c-8,2.4-15.9,4.9-24.1,7.1
	C42.7,762.6,42.1,760.3,41.4,758.1z"/>
<path fill="#5DBEE9" d="M1157.4,757.1c-1,6-9.8,3.1-7.9-2.2C1152.2,755.6,1154.9,756.2,1157.4,757.1z"/>
<path fill="#FEFBFC" d="M44.7,768.8c1.6-0.3,3.1-0.7,4.8-1c0.3,1.2,0.9,3.6,1.2,4.8c6.6-1.9,13.1-4.2,19.7-6.1
	c0.7,2.2,1.3,4.5,2.1,6.7c-6.4,2.1-13,4.2-19.4,6.4c0.6,1.8,1.2,3.6,1.8,5.4c-1,0.3-3.3,1-4.3,1.3C48.3,780.4,46.5,774.6,44.7,768.8
	z"/>
<path fill="#FEFBFC" d="M1130.6,773.2c0.7-2.2,1.6-4.5,2.5-6.7c7.7,2.7,15.6,5.4,23.5,7.7c-0.7,2.5-1.6,4.9-2.5,7.3
	C1146.3,778.7,1138.4,776,1130.6,773.2z"/>
<path fill="#FEFBFC" d="M1123.5,792.2c1.6-5.1,3.7-10.1,5.7-15c7.7,3,15.6,5.7,23.4,8.6c-0.9,2.4-1.6,4.6-2.5,7
	c-6.4-2.4-12.7-4.9-19.1-7.3c-1,2.7-2.1,5.2-3.1,7.9C1126.8,793.1,1124.7,792.5,1123.5,792.2z"/>
<path fill="#FEFBFC" d="M53.3,790c1.3-4.6,7.4-6.3,11.5-4.8c3.3,1,4.3,4.5,5.5,7.3c2.5-0.9,5.1-1.8,7.6-2.5c0.7,2.2,1.6,4.3,2.4,6.6
	c-7.9,2.8-15.6,5.8-23.5,8.5C55.2,800.1,52.3,795.2,53.3,790z"/>
<path fill="#F140AA" d="M58.1,793.4c2.5-1.8,6.1-2.4,8.2,0.4c-2.5,1-5.2,1.9-7.7,2.7C58.4,795.8,58.2,794.3,58.1,793.4z"/>
<path fill="#FEFBFC" d="M77.1,801c1.5-0.4,3-1,4.3-1.5c1.8,4.6,3.6,9.2,5.4,14c-7.7,3-15.5,6.1-23.2,9.1c-1.9-4.8-3.7-9.7-5.5-14.4
	c1.5-0.6,3-1,4.5-1.5c1,2.7,2.1,5.2,3.1,7.9c4.6-1.3,1.2-5.8,0.4-8.8c1-0.3,3.3-1,4.3-1.3c0.9,2.2,1.8,4.6,2.8,7
	c2.4-0.9,4.6-1.8,7-2.7C78.9,805.9,78,803.4,77.1,801z"/>
<path fill="#FEFBFC" d="M77.1,822.7c2.2-3.4,7.6-4.8,10.9-2.1c4,2.7,4.6,7.7,5.5,12.1c-1.6,0.6-3.4,1.2-5.1,1.9
	c-0.6-3.1,0.1-10.4-5.1-8.6c-1,4.2,0.1,9.8-4.2,12.2c-2.8,2.2-7,1.5-9.2-1.3c-3-3.1-3.3-7.7-4.2-11.8c1.3,0.1,4,0.4,5.4,0.6
	c0.1,2.5,0,7.1,3.7,7C76.5,829.6,75.9,826,77.1,822.7z"/>
<path fill="#D973B4" d="M85.8,897.9c15-8.5,29.9-17.1,44.7-25.9c46.9,81.3,115.2,150.1,196.2,197.6c-7.9,15.2-17.4,29.3-24.9,44.7
	C212.6,1062.7,137.3,987.2,85.8,897.9z"/>
<path fill="#4B98CC" d="M872,1073.2c83.7-47.6,154.4-117.9,202.5-201.4c14.4,7.9,28.6,16.1,42.7,24.7c-8.8,14.6-17.7,29-27.4,42.9
	c-50.2,72.4-116.9,133.1-193.2,177.2C888.4,1101.9,879.8,1087.9,872,1073.2z"/>
<path fill="#FEFBFC" d="M144.3,942.1c9.7-4.6,20.8,8.2,15.6,17.3c-3,4.8-8.5,8.8-14.3,7.6c-6.1-1.9-10.9-8.2-10.4-14.7
	C136.1,947.6,140.1,944.2,144.3,942.1z"/>
<path fill="#D973B4" d="M148.7,948.2c3-2.1,6.4,0.7,6.8,3.9c-1.3,4-4.9,7.1-8.9,8.5c-3.1,1.2-6.4-2.1-5.7-5.2
	C142.6,952.1,145.5,949.6,148.7,948.2z"/>
<path fill="#FEFBFC" d="M1033.1,952.3c1.2-1.6,2.5-3.4,3.7-5.1c6.7,5.1,13.4,10.1,20.1,15.2c-1.9,2.5-4,5.1-6,7.6
	c-5.4-2.4-10.7-4.5-15.9-6.8c3.4,4.8,6.8,9.5,10,14.4c-2.1,2.4-4.2,4.8-6.3,7.1c-6.4-5.4-12.7-11-18.9-16.5c1.5-1.6,2.8-3.3,4.3-4.9
	c3.9,3.3,7.6,6.6,11.5,9.8c-3-4.3-6-8.5-8.9-12.7c1.3-1.8,2.7-3.4,4-5.2c4.8,2.1,9.5,4.2,14.3,6.3
	C1041,958.4,1037,955.4,1033.1,952.3z"/>
<path fill="#FEFBFC" d="M155.6,975.2c5.1-4.5,10.1-8.8,15.3-13.3c1.5,1.8,3.1,3.4,4.6,5.2c-4.9,4.6-10.1,8.9-15.2,13.4
	c1.2,1.5,2.5,3,3.7,4.3c-1.2,1-2.4,2.1-3.4,3.1c-4.2-4.6-8.2-9.2-12.2-14c1.2-1,2.4-2.1,3.6-3C153.2,972.5,154.4,973.8,155.6,975.2z
	"/>
<path fill="#FEFBFC" d="M1012.9,975.9c1.6-1.9,3.4-3.9,5.2-5.8c4.5,7.7,8.6,15.5,12.7,23.5c-2.2,2.4-4.5,4.6-6.7,6.8
	c-8-3.7-16.1-7.4-24-11.6c1.8-1.8,3.6-3.7,5.4-5.5c1.8,1,3.6,2.2,5.4,3.3c1.9-1.9,3.7-3.7,5.7-5.7
	C1015.2,979.4,1013.9,977.7,1012.9,975.9z"/>
<path fill="#FEFBFC" d="M172.1,982.2c1.5-2.5,3.1-5.4,6.3-6c6.1-0.7,10.3,4.8,13.1,9.4c-1.2,1.3-2.4,2.7-3.7,3.9
	c-2.1-2.7-3.3-8.8-7.7-7c-0.3,3.4,1.5,6.7,1.5,10.1c-0.3,4.2-4.8,8-9.1,6.4c-4.6-1.6-7.3-6.1-9.4-10.3c1.6-0.6,3.3-1.2,4.8-1.6
	c1.5,2.7,2.7,6.4,6.4,6.1C173.8,989.2,173,985.6,172.1,982.2z"/>
<path fill="#4B98CC" d="M1015.2,988.9c1.2-1.2,2.2-2.2,3.4-3.3c1.5,2.5,3,5.1,4.5,7.6C1020.6,991.7,1017.9,990.4,1015.2,988.9z"/>
<path fill="#FEFBFC" d="M189.2,991.7c6.8-3.1,14.3,2.2,16.7,8.8c2.7,9.1-8,19.7-17,15.5c-4-2.1-7.6-5.5-8.5-10.1
	C179.4,999.8,184,994.4,189.2,991.7z"/>
<path fill="#FEFBFC" d="M994.8,993.6c2.5,2.2,4.9,4.8,7.4,6.8c5.4,2.2,11,3.4,16.4,5.2c-1.9,1.9-3.7,3.7-5.7,5.7
	c-3.1-1-6.3-2.1-9.4-3.3c0.7,3.1,1.6,6.4,2.5,9.5c-2.1,1.8-4,3.4-6.1,5.2c-1.3-5.7-1.9-11.3-3.6-16.8c-1.8-2.8-4.3-5.1-6.4-7.6
	C991.7,996.8,993.2,995.1,994.8,993.6z"/>
<path fill="#D973B4" d="M193.7,997.4c4-2.5,8.6,3.1,5.7,6.7c-2.4,3.1-5.8,7.7-10.4,6.3C183.1,1006.3,189.5,999.8,193.7,997.4z"/>
<path fill="#FEFBFC" d="M203.1,1016.3c3-3.4,6.1-6.7,9.2-10.1c4.2,2.4,8.6,5.1,11.3,9.2c4.8,8.6-4.9,21-14.3,17.9
	c-5.2-1.5-8.8-6-11.9-10c1.2-0.4,3.6-1.5,4.8-2.1c2.1,2.5,4,6,7.6,6.7c4.5-0.7,7.6-4.6,8.9-8.6c1-2.8-2.1-4.5-3.9-6
	c-1,1.3-2.1,2.7-3.1,4.2c0.7,0.7,2.4,2.2,3.1,3c-1,1-1.9,2.2-3,3.3C208.7,1021.2,205.9,1018.7,203.1,1016.3z"/>
<path fill="#FEFBFC" d="M978.3,1009.4c8.5-3.3,17.9,5.7,17,14.1c-1.9,7.7-12.1,14.7-19.5,9.5c-4.5-3.4-7.9-9.1-6.4-14.9
	C970.7,1014,974.5,1011.1,978.3,1009.4z"/>
<path fill="#4B98CC" d="M975.8,1020.7c-2.1-3.4,2.8-7.7,6-5.7c3.9,2.1,6,6.1,7.6,10.1c-1.8,1.3-3,4.3-5.7,3.7
	C979.8,1027.9,977.4,1024,975.8,1020.7z"/>
<path fill="#FEFBFC" d="M220.5,1044.4c3-8.3,6-16.7,9.1-24.9c1.9,1.6,4,3.3,6,4.8c-0.9,1.8-1.9,3.6-2.8,5.5c2.1,1.6,4.2,3.3,6.1,4.9
	c1.6-1.3,3.3-2.7,4.9-3.9c2.1,1.5,4,3,6.1,4.6c-7.3,5.2-14.6,10.1-22.2,14.7C225.4,1048.3,222.9,1046.4,220.5,1044.4z"/>
<path fill="#D973B4" d="M227.5,1043.1c1.2-2.8,2.4-5.7,3.7-8.5c0.9,0.7,2.7,2.2,3.6,3.1C232.3,1039.4,229.9,1041.1,227.5,1043.1z"/>
<path fill="#B7568B" d="M326.8,1069.6c82.3,48.5,177.8,74.7,273.5,74.7c2.2,9.2,1.2,18.8,1.3,28.3c-0.1,7.3,0.9,14.7-1.2,21.7
	c-3.7,0-7.4-0.1-11,0c-100.6-1.3-200.4-29.8-287.3-80.1C309.2,1098.9,318.8,1084.8,326.8,1069.6z"/>
<path fill="#9375B5" d="M600.3,1144.3c94.7,0.7,189.5-24.1,271.7-71.2c7.6,14.7,16.4,28.9,24.6,43.2c-74.1,43-158.3,68.9-243.7,76.4
	c-21.1,1.5-42.4,3.1-63.7,1.6c3.7-0.1,7.4,0,11,0c2.1-7.1,1.2-14.6,1.2-21.7C601.4,1163.2,602.5,1153.5,600.3,1144.3z"/>
<path fill="#FEFBFC" d="M787.6,1125c-1.5-5.7,3.9-9.2,8.6-10.3c0.4,1,1.2,3,1.6,3.9c-1.5,1-2.8,2.1-4.3,3.1c3.1,8.6,7,17,10.3,25.6
	c-2.4,0.9-4.6,1.8-7,2.8C793.9,1141.6,789.8,1133.6,787.6,1125z"/>
<path fill="#FEFBFC" d="M408.1,1127.2c7.6-3.6,19.8,1.9,18.8,11.3c-0.1,6-4,13.1-10.6,13.3c-5.7,0-11.9-2.4-14.4-7.7
	C399.8,1137.9,402.7,1130.5,408.1,1127.2z"/>
<path fill="#B7568B" d="M413.9,1131.4c2.4-1.3,6,1.2,6,3.9c-0.1,4.3-1.6,10.1-6.4,11.5C405,1145.8,408.8,1134.2,413.9,1131.4z"/>
<path fill="#FEFBFC" d="M766.8,1143c-2.8-10.1,14.1-16.8,19.2-7.9c2.7,5.4,4.3,11,6.6,16.7c-2.4,0.9-4.8,1.6-7,2.5
	c-2.2-5.7-3.7-11.5-6.4-17c-2.1-2.2-4.5-0.4-6.4,1c1.6,6.3,3.9,12.2,6,18.3c-2.4,0.7-4.8,1.5-7.1,2.2
	C770,1153.5,767.8,1148.5,766.8,1143z"/>
<path fill="#FEFBFC" d="M433.4,1132.4c2.2,0.7,4.5,1.5,6.7,2.2c-2.5,7.9-4.9,15.9-7.4,23.8c-2.4-0.7-4.8-1.5-7.3-2.2
	C428.3,1148.3,430.7,1140.3,433.4,1132.4z"/>
<path fill="#FEFBFC" d="M444,1135.7c5.1,1.5,10.3,2.8,15.3,4.2c-2.1,8-4,16.1-6.1,24.3c-2.4-0.6-4.9-1.2-7.3-1.8
	c1.6-6.6,3.4-13.1,5.2-19.7c-2.8-0.9-5.7-1.6-8.5-2.5C443.2,1139.1,443.8,1136.9,444,1135.7z"/>
<path fill="#FEFBFC" d="M753.5,1138.2c2.1-0.6,4-1,6.1-1.6c2.4,7.9,4.8,15.9,7.1,23.8c-3,0.9-6.1,1.6-9.1,2.5
	c-3.9-4.3-7.7-8.8-11.6-13.1c1.2,5.1,2.5,10.1,3.9,15c-2.2,0.6-4.3,1.2-6.6,1.8c-1.6-8.2-4.2-16.2-5.4-24.6c2.8-0.6,5.7-1.2,8.5-1.9
	c3.7,4.6,7.6,8.9,11.8,13.4C756.5,1148.5,755,1143.3,753.5,1138.2z"/>
<path fill="#FEFBFC" d="M493.4,1139.4c2.7-1.5,5.7-0.4,8.5,0c-0.1,1-0.4,3.3-0.6,4.3c-1.8,0-5.1-0.6-5.4,1.9
	c-1.6,8.5-2.4,17.1-3.7,25.6c-2.5-0.3-4.9-0.6-7.4-0.9c1-7.7,2.2-15.3,3.4-22.9C488.9,1144.5,490,1140.6,493.4,1139.4z"/>
<path fill="#FEFBFC" d="M462.3,1148.3c3.4-9.2,20.2-6.4,20.5,3.4c-0.1,6.1-1.8,11.9-2.7,17.9c-2.4-0.4-4.8-0.9-7.3-1.2
	c0.9-6.1,2.1-12.2,3.4-18.3c-1.8-1.6-3.7-3.3-6.1-1.8c-2.7,5.8-2.8,12.4-4.6,18.5c-2.4-0.6-4.9-1-7.3-1.5
	C459.6,1159.7,460.5,1153.8,462.3,1148.3z"/>
<path fill="#FEFBFC" d="M725.4,1145.1c2.2-0.4,4.6-0.9,7-1.3c1.8,8,3.4,16.2,5.4,24.3c-2.4,0.4-4.9,1-7.3,1.6
	C728.6,1161.3,727,1153.3,725.4,1145.1z"/>
<path fill="#FEFBFC" d="M707.4,1148.3c4.6-1.3,10.3-1.2,13.5,2.5c3.3,4,4.5,10,2.8,15c-2.5,6-10,7.4-15.8,6.7
	C696.8,1170.7,695.9,1150.7,707.4,1148.3z"/>
<path fill="#9375B5" d="M710.3,1152.4c5.2-0.9,6.4,6,6.8,9.8c0.7,4.5-5.7,8.3-8.5,4C706.5,1162,704.7,1154.1,710.3,1152.4z"/>
<path fill="none" stroke="#EF6B8B" stroke-width="4" stroke-linecap="round" stroke-linejoin="round" stroke-miterlimit="10" d="
	M601,126.6c0-13,0-26.1,0-39.1"/>
<path fill="#B8CDF2" d="M583.4,55c54.8-1.8,109.9,4.1,162.9,18.7c58.9,16.2,115.1,42.4,165.3,77c45.2,31.3,85.8,69.4,119.8,112.7
	c36.9,46.8,65.7,99.6,85.5,155.6c23.2,65,32.9,134.5,30.1,203.5c-2.4,64.5-16.5,128.6-41.7,188.1c-42.1,100.7-115.4,188-207.1,247.1
	c-51.6,33.4-108.8,57.9-168.7,72.4c-64.2,15-131.2,18.5-196.6,10.3c-120.1-14.9-234.2-72-318.8-158.4
	C146.6,914,98.2,827.6,74.2,734.8c-14.7-57.9-19.6-118.3-15-177.8c8.7-120.1,59.7-236.4,141-325.1C276.4,148,379.5,89.1,490.3,65.7
	C521,59.7,552.1,56,583.4,55z"/>
<path fill="#FFFFFF" d="M602.7,128c-0.8,0-1.5-0.7-1.5-1.5L601,92.8c0-0.8,0.7-1.5,1.5-1.5c0,0,0,0,0,0c0.8,0,1.5,0.7,1.5,1.5
	l0.2,33.7C604.2,127.3,603.5,128,602.7,128C602.7,128,602.7,128,602.7,128z"/>
<path fill="#FFFFFF" d="M558.8,129.8c-0.8,0-1.4-0.6-1.5-1.4l-3.1-33.6c-0.1-0.8,0.5-1.6,1.4-1.6c0.8-0.1,1.6,0.5,1.6,1.4l3.1,33.6
	c0.1,0.8-0.5,1.6-1.4,1.6C558.9,129.8,558.9,129.8,558.8,129.8z"/>
<path fill="#FFFFFF" d="M517.8,135.1c-0.7,0-1.3-0.5-1.5-1.2l-6-33.2c-0.1-0.8,0.4-1.6,1.2-1.7c0.8-0.1,1.6,0.4,1.7,1.2l6,33.2
	c0.1,0.8-0.4,1.6-1.2,1.7C518,135.1,517.9,135.1,517.8,135.1z"/>
<path fill="#FFFFFF" d="M477.5,144c-0.7,0-1.3-0.4-1.4-1.1l-8.9-32.5c-0.2-0.8,0.3-1.6,1.1-1.8c0.8-0.2,1.6,0.3,1.8,1.1l8.9,32.5
	c0.2,0.8-0.3,1.6-1.1,1.8C477.7,144,477.6,144,477.5,144z"/>
<path fill="#FFFFFF" d="M438.1,156.4c-0.6,0-1.2-0.4-1.4-1l-11.7-31.6c-0.3-0.8,0.1-1.6,0.9-1.9c0.8-0.3,1.6,0.1,1.9,0.9l11.7,31.6
	c0.3,0.8-0.1,1.6-0.9,1.9C438.4,156.4,438.2,156.4,438.1,156.4z"/>
<path fill="#FFFFFF" d="M399.9,172.2c-0.6,0-1.1-0.3-1.4-0.9l-14.4-30.5c-0.4-0.7,0-1.6,0.7-2c0.8-0.4,1.6,0,2,0.7l14.4,30.5
	c0.4,0.7,0,1.6-0.7,2C400.3,172.2,400.1,172.2,399.9,172.2z"/>
<path fill="#FFFFFF" d="M363.2,191.3c-0.5,0-1-0.3-1.3-0.7l-17-29.1c-0.4-0.7-0.2-1.6,0.5-2.1c0.7-0.4,1.6-0.2,2.1,0.5l17,29.1
	c0.4,0.7,0.2,1.6-0.5,2.1C363.7,191.2,363.4,191.3,363.2,191.3z"/>
<path fill="#FFFFFF" d="M328.3,213.5c-0.5,0-0.9-0.2-1.2-0.6l-19.5-27.5c-0.5-0.7-0.3-1.6,0.4-2.1c0.7-0.5,1.6-0.3,2.1,0.4
	l19.5,27.5c0.5,0.7,0.3,1.6-0.4,2.1C328.9,213.4,328.6,213.5,328.3,213.5z"/>
<path fill="#FFFFFF" d="M295.5,238.6c-0.4,0-0.8-0.2-1.1-0.5l-21.8-25.7c-0.5-0.6-0.5-1.6,0.2-2.1c0.6-0.5,1.6-0.5,2.1,0.2
	l21.8,25.7c0.5,0.6,0.5,1.6-0.2,2.1C296.2,238.5,295.8,238.6,295.5,238.6z"/>
<path fill="#FFFFFF" d="M265,266.5c-0.4,0-0.8-0.1-1.1-0.4l-24-23.7c-0.6-0.6-0.6-1.5,0-2.1c0.6-0.6,1.5-0.6,2.1,0l24,23.7
	c0.6,0.6,0.6,1.5,0,2.1C265.8,266.3,265.4,266.5,265,266.5z"/>
<path fill="#FFFFFF" d="M237.1,296.9c-0.3,0-0.7-0.1-1-0.3l-26-21.5c-0.6-0.5-0.7-1.5-0.2-2.1c0.5-0.6,1.5-0.7,2.1-0.2l26,21.5
	c0.6,0.5,0.7,1.5,0.2,2.1C237.9,296.8,237.5,296.9,237.1,296.9z"/>
<path fill="#FFFFFF" d="M211.9,329.7c-0.3,0-0.6-0.1-0.9-0.3l-27.7-19.2c-0.7-0.5-0.9-1.4-0.4-2.1c0.5-0.7,1.4-0.9,2.1-0.4
	l27.7,19.2c0.7,0.5,0.9,1.4,0.4,2.1C212.8,329.5,212.3,329.7,211.9,329.7z"/>
<path fill="#FFFFFF" d="M189.6,364.6c-0.3,0-0.5-0.1-0.7-0.2l-29.3-16.7c-0.7-0.4-1-1.3-0.6-2c0.4-0.7,1.3-1,2-0.6l29.3,16.7
	c0.7,0.4,1,1.3,0.6,2C190.7,364.3,190.2,364.6,189.6,364.6z"/>
<path fill="#FFFFFF" d="M170.5,401.2c-0.2,0-0.4,0-0.6-0.1L139.2,387c-0.8-0.3-1.1-1.2-0.7-2c0.3-0.8,1.2-1.1,2-0.7l30.7,14.1
	c0.8,0.3,1.1,1.2,0.7,2C171.6,400.9,171.1,401.2,170.5,401.2z"/>
<path fill="#FFFFFF" d="M154.7,439.4c-0.2,0-0.3,0-0.5-0.1l-31.8-11.4c-0.8-0.3-1.2-1.1-0.9-1.9c0.3-0.8,1.1-1.2,1.9-0.9l31.8,11.4
	c0.8,0.3,1.2,1.1,0.9,1.9C155.9,439,155.3,439.4,154.7,439.4z"/>
<path fill="#FFFFFF" d="M142.2,478.8c-0.1,0-0.3,0-0.4,0l-32.6-8.6c-0.8-0.2-1.3-1-1.1-1.8c0.2-0.8,1-1.3,1.8-1.1l32.6,8.6
	c0.8,0.2,1.3,1,1.1,1.8C143.5,478.3,142.9,478.8,142.2,478.8z"/>
<path fill="#FFFFFF" d="M133.2,519.1c-0.1,0-0.2,0-0.3,0l-33.3-5.7c-0.8-0.1-1.4-0.9-1.2-1.7c0.1-0.8,0.9-1.4,1.7-1.2l33.3,5.7
	c0.8,0.1,1.4,0.9,1.2,1.7C134.6,518.6,134,519.1,133.2,519.1z"/>
<path fill="#FFFFFF" d="M127.8,560.1c0,0-0.1,0-0.1,0l-33.6-2.8c-0.8-0.1-1.4-0.8-1.4-1.6c0.1-0.8,0.8-1.4,1.6-1.4l33.6,2.8
	c0.8,0.1,1.4,0.8,1.4,1.6C129.2,559.5,128.6,560.1,127.8,560.1z"/>
<path fill="#FFFFFF" d="M92.2,601.6c-0.8,0-1.5-0.7-1.5-1.5c0-0.8,0.7-1.5,1.5-1.5l33.7-0.2c0,0,0,0,0,0c0.8,0,1.5,0.7,1.5,1.5
	c0,0.8-0.7,1.5-1.5,1.5L92.2,601.6C92.2,601.6,92.2,601.6,92.2,601.6z"/>
<path fill="#FFFFFF" d="M94.1,645.8c-0.8,0-1.4-0.6-1.5-1.4c-0.1-0.8,0.5-1.6,1.4-1.6l33.6-3.1c0.8-0.1,1.6,0.5,1.6,1.4
	s-0.5,1.6-1.4,1.6l-33.6,3.1C94.2,645.8,94.2,645.8,94.1,645.8z"/>
<path fill="#FFFFFF" d="M99.9,689.7c-0.7,0-1.3-0.5-1.5-1.2c-0.1-0.8,0.4-1.6,1.2-1.7l33.2-6c0.8-0.1,1.6,0.4,1.7,1.2
	c0.1,0.8-0.4,1.6-1.2,1.7l-33.2,6C100.1,689.7,100,689.7,99.9,689.7z"/>
<path fill="#FFFFFF" d="M109.5,732.9c-0.7,0-1.3-0.4-1.4-1.1c-0.2-0.8,0.3-1.6,1.1-1.8l32.5-8.9c0.8-0.2,1.6,0.3,1.8,1.1
	c0.2,0.8-0.3,1.6-1.1,1.8l-32.5,8.9C109.7,732.9,109.6,732.9,109.5,732.9z"/>
<path fill="#FFFFFF" d="M122.8,775.2c-0.6,0-1.2-0.4-1.4-1c-0.3-0.8,0.1-1.6,0.9-1.9l31.6-11.7c0.8-0.3,1.6,0.1,1.9,0.9
	c0.3,0.8-0.1,1.6-0.9,1.9l-31.6,11.7C123.1,775.1,122.9,775.2,122.8,775.2z"/>
<path fill="#FFFFFF" d="M139.7,816.1c-0.6,0-1.1-0.3-1.4-0.9c-0.4-0.7,0-1.6,0.7-2l30.5-14.4c0.7-0.4,1.6,0,2,0.7
	c0.4,0.7,0,1.6-0.7,2l-30.5,14.4C140.1,816,139.9,816.1,139.7,816.1z"/>
<path fill="#FFFFFF" d="M160.1,855.4c-0.5,0-1-0.3-1.3-0.7c-0.4-0.7-0.2-1.6,0.5-2.1l29.1-17c0.7-0.4,1.6-0.2,2.1,0.5
	c0.4,0.7,0.2,1.6-0.5,2.1l-29.1,17C160.7,855.3,160.4,855.4,160.1,855.4z"/>
<path fill="#FFFFFF" d="M183.9,892.7c-0.5,0-0.9-0.2-1.2-0.6c-0.5-0.7-0.3-1.6,0.4-2.1l27.5-19.5c0.7-0.5,1.6-0.3,2.1,0.4
	c0.5,0.7,0.3,1.6-0.4,2.1l-27.5,19.5C184.5,892.6,184.2,892.7,183.9,892.7z"/>
<path fill="#FFFFFF" d="M210.8,927.8c-0.4,0-0.8-0.2-1.1-0.5c-0.5-0.6-0.5-1.6,0.2-2.1l25.7-21.8c0.6-0.5,1.6-0.5,2.1,0.2
	c0.5,0.6,0.5,1.6-0.2,2.1l-25.7,21.8C211.5,927.7,211.2,927.8,210.8,927.8z"/>
<path fill="#FFFFFF" d="M240.7,960.5c-0.4,0-0.8-0.1-1.1-0.4c-0.6-0.6-0.6-1.5,0-2.1l23.7-24c0.6-0.6,1.5-0.6,2.1,0
	c0.6,0.6,0.6,1.5,0,2.1l-23.7,24C241.5,960.4,241.1,960.5,240.7,960.5z"/>
<path fill="#FFFFFF" d="M273.4,990.4c-0.3,0-0.7-0.1-1-0.3c-0.6-0.5-0.7-1.5-0.2-2.1l21.5-26c0.5-0.6,1.5-0.7,2.1-0.2
	c0.6,0.5,0.7,1.5,0.2,2.1l-21.5,26C274.2,990.2,273.8,990.4,273.4,990.4z"/>
<path fill="#FFFFFF" d="M308.5,1017.4c-0.3,0-0.6-0.1-0.9-0.3c-0.7-0.5-0.9-1.4-0.4-2.1l19.2-27.7c0.5-0.7,1.4-0.9,2.1-0.4
	c0.7,0.5,0.9,1.4,0.4,2.1l-19.2,27.7C309.4,1017.2,309,1017.4,308.5,1017.4z"/>
<path fill="#FFFFFF" d="M345.8,1041.2c-0.3,0-0.5-0.1-0.7-0.2c-0.7-0.4-1-1.3-0.6-2l16.7-29.3c0.4-0.7,1.3-1,2-0.6
	c0.7,0.4,1,1.3,0.6,2l-16.7,29.3C346.9,1040.9,346.3,1041.2,345.8,1041.2z"/>
<path fill="#FFFFFF" d="M385.1,1061.6c-0.2,0-0.4,0-0.6-0.1c-0.8-0.3-1.1-1.2-0.7-2l14.1-30.7c0.3-0.8,1.2-1.1,2-0.7
	c0.8,0.3,1.1,1.2,0.7,2l-14.1,30.7C386.2,1061.3,385.7,1061.6,385.1,1061.6z"/>
<path fill="#FFFFFF" d="M426,1078.6c-0.2,0-0.3,0-0.5-0.1c-0.8-0.3-1.2-1.1-0.9-1.9l11.4-31.8c0.3-0.8,1.1-1.2,1.9-0.9
	c0.8,0.3,1.2,1.1,0.9,1.9l-11.4,31.8C427.2,1078.2,426.6,1078.6,426,1078.6z"/>
<path fill="#FFFFFF" d="M468.2,1091.9c-0.1,0-0.3,0-0.4,0c-0.8-0.2-1.3-1-1.1-1.8l8.6-32.6c0.2-0.8,1-1.3,1.8-1.1
	c0.8,0.2,1.3,1,1.1,1.8l-8.6,32.6C469.5,1091.5,468.9,1091.9,468.2,1091.9z"/>
<path fill="#FFFFFF" d="M511.4,1101.5c-0.1,0-0.2,0-0.3,0c-0.8-0.1-1.4-0.9-1.2-1.7l5.7-33.3c0.1-0.8,0.9-1.4,1.7-1.2
	c0.8,0.1,1.4,0.9,1.2,1.7l-5.7,33.3C512.8,1101,512.2,1101.5,511.4,1101.5z"/>
<path fill="#FFFFFF" d="M555.3,1107.3c0,0-0.1,0-0.1,0c-0.8-0.1-1.4-0.8-1.4-1.6l2.8-33.6c0.1-0.8,0.8-1.4,1.6-1.4
	c0.8,0.1,1.4,0.8,1.4,1.6l-2.8,33.6C556.8,1106.7,556.1,1107.3,555.3,1107.3z"/>
<path fill="#FFFFFF" d="M599.6,1109.3c-0.8,0-1.5-0.7-1.5-1.5l-0.2-33.7c0-0.8,0.7-1.5,1.5-1.5c0,0,0,0,0,0c0.8,0,1.5,0.7,1.5,1.5
	l0.2,33.7C601.1,1108.6,600.4,1109.3,599.6,1109.3C599.6,1109.3,599.6,1109.3,599.6,1109.3z"/>
<path fill="#FFFFFF" d="M643.8,1107.4c-0.8,0-1.4-0.6-1.5-1.4l-3.1-33.6c-0.1-0.8,0.5-1.6,1.4-1.6c0.8-0.1,1.6,0.5,1.6,1.4l3.1,33.6
	c0.1,0.8-0.5,1.6-1.4,1.6C643.9,1107.4,643.8,1107.4,643.8,1107.4z"/>
<path fill="#FFFFFF" d="M687.7,1101.6c-0.7,0-1.3-0.5-1.5-1.2l-6-33.2c-0.1-0.8,0.4-1.6,1.2-1.7c0.8-0.1,1.6,0.4,1.7,1.2l6,33.2
	c0.1,0.8-0.4,1.6-1.2,1.7C687.9,1101.6,687.8,1101.6,687.7,1101.6z"/>
<path fill="#FFFFFF" d="M730.9,1092c-0.7,0-1.3-0.4-1.4-1.1l-8.9-32.5c-0.2-0.8,0.3-1.6,1.1-1.8c0.8-0.2,1.6,0.3,1.8,1l8.9,32.5
	c0.2,0.8-0.3,1.6-1.1,1.8C731.2,1092,731,1092,730.9,1092z"/>
<path fill="#FFFFFF" d="M773.1,1078.7c-0.6,0-1.2-0.4-1.4-1l-11.7-31.6c-0.3-0.8,0.1-1.6,0.9-1.9c0.8-0.3,1.6,0.1,1.9,0.9l11.7,31.6
	c0.3,0.8-0.1,1.6-0.9,1.9C773.5,1078.7,773.3,1078.7,773.1,1078.7z"/>
<path fill="#FFFFFF" d="M814.1,1061.8c-0.6,0-1.1-0.3-1.4-0.9l-14.4-30.5c-0.4-0.7,0-1.6,0.7-2c0.7-0.4,1.6,0,2,0.7l14.4,30.5
	c0.4,0.7,0,1.6-0.7,2C814.5,1061.8,814.3,1061.8,814.1,1061.8z"/>
<path fill="#FFFFFF" d="M853.3,1041.4c-0.5,0-1-0.3-1.3-0.7l-17-29.1c-0.4-0.7-0.2-1.6,0.5-2.1c0.7-0.4,1.6-0.2,2.1,0.5l17,29.1
	c0.4,0.7,0.2,1.6-0.5,2.1C853.9,1041.3,853.6,1041.4,853.3,1041.4z"/>
<path fill="#FFFFFF" d="M890.7,1017.6c-0.5,0-0.9-0.2-1.2-0.6L870,989.4c-0.5-0.7-0.3-1.6,0.4-2.1c0.7-0.5,1.6-0.3,2.1,0.4
	l19.5,27.5c0.5,0.7,0.3,1.6-0.4,2.1C891.3,1017.5,891,1017.6,890.7,1017.6z"/>
<path fill="#FFFFFF" d="M925.8,990.7c-0.4,0-0.8-0.2-1.1-0.5l-21.8-25.7c-0.5-0.6-0.5-1.6,0.2-2.1c0.6-0.5,1.6-0.5,2.1,0.2
	l21.8,25.7c0.5,0.6,0.5,1.6-0.2,2.1C926.5,990.5,926.2,990.7,925.8,990.7z"/>
<path fill="#FFFFFF" d="M957,960.8c-0.4,0-0.8-0.1-1.1-0.4l-24-23.7c-0.6-0.6-0.6-1.5,0-2.1c0.6-0.6,1.5-0.6,2.1,0l24,23.7
	c0.6,0.6,0.6,1.5,0,2.1C957.8,960.6,957.4,960.8,957,960.8z"/>
<path fill="#FFFFFF" d="M988.4,928.1c-0.3,0-0.7-0.1-1-0.3l-26-21.5c-0.6-0.5-0.7-1.5-0.2-2.1c0.5-0.6,1.5-0.7,2.1-0.2l26,21.5
	c0.6,0.5,0.7,1.5,0.2,2.1C989.3,927.9,988.8,928.1,988.4,928.1z"/>
<path fill="#FFFFFF" d="M1015.4,893c-0.3,0-0.6-0.1-0.9-0.3l-27.7-19.2c-0.7-0.5-0.9-1.4-0.4-2.1c0.5-0.7,1.4-0.9,2.1-0.4l27.7,19.2
	c0.7,0.5,0.9,1.4,0.4,2.1C1016.3,892.8,1015.8,893,1015.4,893z"/>
<path fill="#FFFFFF" d="M1039.2,855.7c-0.3,0-0.5-0.1-0.7-0.2l-29.3-16.7c-0.7-0.4-1-1.3-0.6-2c0.4-0.7,1.3-1,2-0.6l29.3,16.7
	c0.7,0.4,1,1.3,0.6,2C1040.2,855.4,1039.7,855.7,1039.2,855.7z"/>
<path fill="#FFFFFF" d="M1059.6,816.4c-0.2,0-0.4,0-0.6-0.1l-30.7-14.1c-0.8-0.3-1.1-1.2-0.7-2c0.3-0.8,1.2-1.1,2-0.7l30.7,14.1
	c0.8,0.3,1.1,1.2,0.7,2C1060.7,816.1,1060.2,816.4,1059.6,816.4z"/>
<path fill="#FFFFFF" d="M1076.6,775.5c-0.2,0-0.3,0-0.5-0.1l-31.8-11.4c-0.8-0.3-1.2-1.1-0.9-1.9s1.1-1.2,1.9-0.9l31.8,11.4
	c0.8,0.3,1.2,1.1,0.9,1.9C1077.8,775.1,1077.2,775.5,1076.6,775.5z"/>
<path fill="#FFFFFF" d="M1089.9,733.3c-0.1,0-0.3,0-0.4,0l-32.6-8.6c-0.8-0.2-1.3-1-1.1-1.8c0.2-0.8,1-1.3,1.8-1.1l32.6,8.6
	c0.8,0.2,1.3,1,1.1,1.8C1091.2,732.9,1090.6,733.3,1089.9,733.3z"/>
<path fill="#FFFFFF" d="M1095,690.1c-0.1,0-0.2,0-0.3,0l-33.3-5.7c-0.8-0.1-1.4-0.9-1.2-1.7c0.1-0.8,0.9-1.4,1.7-1.2l33.3,5.7
	c0.8,0.1,1.4,0.9,1.2,1.7C1096.4,689.6,1095.7,690.1,1095,690.1z"/>
<path fill="#FFFFFF" d="M1093.8,646.2c0,0-0.1,0-0.1,0l-33.6-2.8c-0.8-0.1-1.4-0.8-1.4-1.6c0.1-0.8,0.8-1.4,1.6-1.4l33.6,2.8
	c0.8,0.1,1.4,0.8,1.4,1.6C1095.2,645.6,1094.6,646.2,1093.8,646.2z"/>
<path fill="#FFFFFF" d="M1063,602.1c-0.8,0-1.5-0.7-1.5-1.5c0-0.8,0.7-1.5,1.5-1.5l33.7-0.2c0,0,0,0,0,0c0.8,0,1.5,0.7,1.5,1.5
	c0,0.8-0.7,1.5-1.5,1.5L1063,602.1C1063,602.1,1063,602.1,1063,602.1z"/>
<path fill="#FFFFFF" d="M1060.2,560.8c-0.8,0-1.4-0.6-1.5-1.4c-0.1-0.8,0.5-1.6,1.4-1.6l33.6-3.1c0.8-0.1,1.6,0.5,1.6,1.4
	s-0.5,1.6-1.4,1.6l-33.6,3.1C1060.3,560.8,1060.3,560.8,1060.2,560.8z"/>
<path fill="#FFFFFF" d="M1054.9,519.9c-0.7,0-1.3-0.5-1.5-1.2c-0.1-0.8,0.4-1.6,1.2-1.7l33.2-6c0.8-0.1,1.6,0.4,1.7,1.2
	c0.1,0.8-0.4,1.6-1.2,1.7l-33.2,6C1055.1,519.9,1055,519.9,1054.9,519.9z"/>
<path fill="#FFFFFF" d="M1049,479.5c-0.7,0-1.3-0.4-1.4-1.1c-0.2-0.8,0.3-1.6,1.1-1.8l32.5-8.9c0.8-0.2,1.6,0.3,1.8,1.1
	c0.2,0.8-0.3,1.6-1.1,1.8l-32.5,8.9C1049.2,479.5,1049.1,479.5,1049,479.5z"/>
<path fill="#FFFFFF" d="M1035.6,440.1c-0.6,0-1.2-0.4-1.4-1c-0.3-0.8,0.1-1.6,0.9-1.9l31.6-11.7c0.8-0.3,1.6,0.1,1.9,0.9
	c0.3,0.8-0.1,1.6-0.9,1.9l-31.6,11.7C1035.9,440,1035.8,440.1,1035.6,440.1z"/>
<path fill="#FFFFFF" d="M1029.3,401.9c-0.6,0-1.1-0.3-1.4-0.9c-0.4-0.7,0-1.6,0.7-2l30.5-14.4c0.8-0.4,1.6,0,2,0.7
	c0.4,0.7,0,1.6-0.7,2l-30.5,14.4C1029.7,401.8,1029.5,401.9,1029.3,401.9z"/>
<path fill="#FFFFFF" d="M1010.2,365.2c-0.5,0-1-0.3-1.3-0.7c-0.4-0.7-0.2-1.6,0.5-2.1l29.1-17c0.7-0.4,1.6-0.2,2.1,0.5
	s0.2,1.6-0.5,2.1l-29.1,17C1010.7,365.1,1010.5,365.2,1010.2,365.2z"/>
<path fill="#FFFFFF" d="M988.1,330.3c-0.5,0-0.9-0.2-1.2-0.6c-0.5-0.7-0.3-1.6,0.4-2.1l27.5-19.5c0.7-0.5,1.6-0.3,2.1,0.4
	c0.5,0.7,0.3,1.6-0.4,2.1l-27.5,19.5C988.7,330.2,988.4,330.3,988.1,330.3z"/>
<path fill="#FFFFFF" d="M962.9,297.5c-0.4,0-0.8-0.2-1.1-0.5c-0.5-0.6-0.5-1.6,0.2-2.1l25.7-21.8c0.6-0.5,1.6-0.5,2.1,0.2
	c0.5,0.6,0.5,1.6-0.2,2.1l-25.7,21.8C963.6,297.4,963.3,297.5,962.9,297.5z"/>
<path fill="#FFFFFF" d="M935,267c-0.4,0-0.8-0.1-1.1-0.4c-0.6-0.6-0.6-1.5,0-2.1l23.7-24c0.6-0.6,1.5-0.6,2.1,0
	c0.6,0.6,0.6,1.5,0,2.1l-23.7,24C935.8,266.9,935.4,267,935,267z"/>
<path fill="#FFFFFF" d="M904.6,239.1c-0.3,0-0.7-0.1-1-0.3c-0.6-0.5-0.7-1.5-0.2-2.1l21.5-26c0.5-0.6,1.5-0.7,2.1-0.2
	c0.6,0.5,0.7,1.5,0.2,2.1l-21.5,26C905.4,238.9,905,239.1,904.6,239.1z"/>
<path fill="#FFFFFF" d="M871.8,213.9c-0.3,0-0.6-0.1-0.9-0.3c-0.7-0.5-0.9-1.4-0.4-2.1l19.2-27.7c0.5-0.7,1.4-0.9,2.1-0.4
	c0.7,0.5,0.9,1.4,0.4,2.1L873,213.2C872.7,213.7,872.3,213.9,871.8,213.9z"/>
<path fill="#FFFFFF" d="M837,191.7c-0.3,0-0.5-0.1-0.7-0.2c-0.7-0.4-1-1.3-0.6-2l16.7-29.3c0.4-0.7,1.3-1,2-0.6c0.7,0.4,1,1.3,0.6,2
	l-16.7,29.3C838,191.4,837.5,191.7,837,191.7z"/>
<path fill="#FFFFFF" d="M800.3,172.5c-0.2,0-0.4,0-0.6-0.1c-0.8-0.3-1.1-1.2-0.7-2l14.1-30.7c0.3-0.8,1.2-1.1,2-0.7
	c0.8,0.3,1.1,1.2,0.7,2l-14.1,30.7C801.4,172.2,800.9,172.5,800.3,172.5z"/>
<path fill="#FFFFFF" d="M762.1,156.7c-0.2,0-0.3,0-0.5-0.1c-0.8-0.3-1.2-1.1-0.9-1.9l11.4-31.8c0.3-0.8,1.1-1.2,1.9-0.9
	c0.8,0.3,1.2,1.1,0.9,1.9l-11.4,31.8C763.3,156.3,762.8,156.7,762.1,156.7z"/>
<path fill="#FFFFFF" d="M722.7,144.2c-0.1,0-0.3,0-0.4,0c-0.8-0.2-1.3-1-1.1-1.8l8.6-32.6c0.2-0.8,1-1.3,1.8-1.1
	c0.8,0.2,1.3,1,1.1,1.8l-8.6,32.6C724,143.8,723.4,144.2,722.7,144.2z"/>
<path fill="#FFFFFF" d="M682.4,135.3c-0.1,0-0.2,0-0.3,0c-0.8-0.1-1.4-0.9-1.2-1.7l5.7-33.3c0.1-0.8,0.9-1.4,1.7-1.2
	c0.8,0.1,1.4,0.9,1.2,1.7l-5.7,33.3C683.7,134.7,683.1,135.3,682.4,135.3z"/>
<path fill="#FFFFFF" d="M644,129.8c0,0-0.1,0-0.1,0c-0.8-0.1-1.4-0.8-1.4-1.6l2.8-33.6c0.1-0.8,0.8-1.4,1.6-1.4
	c0.8,0.1,1.4,0.8,1.4,1.6l-2.8,33.6C645.4,129.2,644.7,129.8,644,129.8z"/>
<g>
	<path fill="#FFFFFF" d="M589.9,81.6l1-1.6c0.7,0.7,1.5,1.1,2.6,1.1c1.9,0,2.9-0.9,2.9-2.8c0-0.9-0.3-1.6-0.8-2.1
		c-0.6-0.5-1.3-0.8-2.2-0.8h-0.2v-1.7h0.1c1.8,0,2.6-0.8,2.6-2.3c0-1.6-0.8-2.4-2.5-2.4c-0.9,0-1.6,0.3-2.1,0.9l-0.9-1.4
		c0.6-0.8,1.7-1.3,3.2-1.3c1.3,0,2.4,0.4,3.2,1.1c0.8,0.7,1.3,1.6,1.3,2.7c0,0.8-0.2,1.6-0.7,2.2c-0.5,0.7-1,1.1-1.6,1.3
		c0.9,0.3,1.6,0.8,2.1,1.4c0.5,0.7,0.8,1.5,0.8,2.5c0,1.4-0.4,2.5-1.3,3.3c-0.9,0.8-2.1,1.2-3.8,1.2c-0.7,0-1.3-0.1-2-0.4
		C590.8,82.3,590.3,82,589.9,81.6z"/>
	<path fill="#FFFFFF" d="M600.6,74.6c0-2.2,0.4-4,1.3-5.3c0.9-1.4,2.1-2.1,3.7-2.1c1.6,0,2.8,0.6,3.6,1.7c0.8,1.1,1.2,3.2,1.2,6
		c0,2.5-0.4,4.4-1.3,5.8c-0.8,1.4-2.1,2.1-3.7,2.1s-2.8-0.6-3.7-1.7C601,80.1,600.6,77.9,600.6,74.6z M602.7,74.8
		c0,4.2,0.9,6.3,2.7,6.3c1,0,1.8-0.5,2.3-1.4c0.5-0.9,0.7-2.6,0.7-4.9c0-1.6-0.1-2.8-0.3-3.5s-0.5-1.3-0.9-1.7
		c-0.4-0.4-0.9-0.6-1.6-0.6C603.7,69,602.7,70.9,602.7,74.8z"/>
</g>
<g>
	<path fill="#FFFFFF" d="M544.5,85.6l0-0.4l4.1-7.7c0.9-1.6,1.2-2.9,1.1-4c-0.1-1.4-1-2-2.6-1.9c-0.6,0-1.1,0.2-1.5,0.6
		c-0.5,0.3-0.8,0.7-1,1.2l-1.4-1c0.2-0.7,0.6-1.3,1.2-1.7c0.6-0.5,1.5-0.7,2.4-0.8c1.5-0.1,2.6,0.1,3.5,0.7c0.9,0.6,1.4,1.5,1.5,2.7
		c0.1,1.1-0.3,2.6-1.3,4.4l-2.9,5.7l5.9-0.5l0.2,1.9L544.5,85.6z"/>
	<path fill="#FFFFFF" d="M556.6,77.1l-0.7-0.4l-0.6-7.3l7.5-0.7l0.2,1.8l-5.6,0.5l0.3,3.7c0.5-0.4,1.1-0.7,1.9-0.7
		c1.4-0.1,2.5,0.2,3.3,1c0.8,0.8,1.3,1.9,1.4,3.5c0.3,3.8-1.2,5.8-4.6,6.1c-1.4,0.1-2.6-0.2-3.6-0.9l0.6-1.8c1,0.7,1.9,1,2.8,0.9
		c1.9-0.2,2.8-1.5,2.6-3.9c-0.2-2.3-1.3-3.3-3.2-3.1C558.1,75.8,557.3,76.2,556.6,77.1z"/>
</g>
<g>
	<path fill="#FFFFFF" d="M499.8,92.4l-0.1-0.4l3.4-8c0.7-1.7,1-3,0.8-4.1c-0.2-1.4-1.1-1.9-2.7-1.7c-0.6,0.1-1,0.3-1.5,0.7
		c-0.4,0.4-0.7,0.8-0.9,1.3l-1.5-0.9c0.1-0.7,0.5-1.3,1.1-1.8c0.6-0.5,1.4-0.9,2.4-1c1.4-0.3,2.6-0.1,3.5,0.4
		c0.9,0.5,1.5,1.4,1.7,2.6c0.2,1.1-0.1,2.6-0.9,4.5l-2.4,5.9l5.9-1l0.3,1.8L499.8,92.4z"/>
	<path fill="#FFFFFF" d="M509.3,82.5c-0.4-2.2-0.3-4,0.4-5.5c0.6-1.5,1.7-2.4,3.3-2.7c1.6-0.3,2.8,0.1,3.8,1.1c1,1,1.7,2.9,2.2,5.7
		c0.4,2.4,0.4,4.4-0.2,5.9c-0.6,1.5-1.7,2.4-3.2,2.7s-2.9-0.1-3.9-1C510.7,87.8,509.9,85.7,509.3,82.5z M511.4,82.3
		c0.7,4.1,2,6.1,3.8,5.8c1-0.2,1.7-0.8,2-1.8c0.3-1,0.3-2.7-0.1-5c-0.3-1.6-0.6-2.7-0.9-3.4c-0.3-0.7-0.7-1.2-1.2-1.5
		c-0.5-0.3-1-0.4-1.7-0.3C511.4,76.4,510.7,78.5,511.4,82.3z"/>
</g>
<g>
	<path fill="#FFFFFF" d="M460.2,101.9l-3-11.3l-2.5,2.7l-0.5-1.9c0.7-0.6,1.3-1.3,2-2.2s1.2-1.7,1.5-2.4l0.6-0.2l4,14.7L460.2,101.9
		z"/>
	<path fill="#FFFFFF" d="M466.4,92.6l-0.8-0.3l-1.9-7.1l7.3-2l0.5,1.7l-5.4,1.4l1,3.6c0.4-0.5,1-0.9,1.7-1.1
		c1.4-0.4,2.5-0.2,3.5,0.4c0.9,0.6,1.6,1.7,2,3.2c1,3.7-0.2,6-3.4,6.8c-1.4,0.4-2.6,0.3-3.7-0.2l0.3-1.9c1.1,0.5,2.1,0.6,2.9,0.4
		c1.9-0.5,2.5-1.9,1.9-4.3c-0.6-2.2-1.8-3-3.7-2.5C467.6,91,466.9,91.6,466.4,92.6z"/>
</g>
<g>
	<path fill="#FFFFFF" d="M417.3,116l-4-11l-2.2,2.9l-0.7-1.8c0.6-0.6,1.2-1.4,1.8-2.4c0.6-1,1-1.8,1.3-2.6l0.6-0.2l5.2,14.3
		L417.3,116z"/>
	<path fill="#FFFFFF" d="M420.8,106.1c-0.7-2.1-0.9-3.9-0.6-5.5c0.4-1.6,1.3-2.7,2.8-3.2c1.5-0.5,2.8-0.4,4,0.4
		c1.1,0.8,2.2,2.6,3.2,5.2c0.8,2.3,1.1,4.3,0.8,5.9s-1.2,2.7-2.7,3.3s-2.9,0.4-4-0.4C423.1,111.1,421.9,109.2,420.8,106.1z
		 M422.8,105.6c1.4,4,3,5.6,4.7,5c1-0.4,1.5-1.1,1.7-2.1c0.1-1-0.2-2.7-1-4.9c-0.6-1.5-1-2.6-1.5-3.2s-0.9-1.1-1.4-1.3
		c-0.5-0.2-1.1-0.2-1.7,0C421.8,99.8,421.5,101.9,422.8,105.6z"/>
</g>
<g>
	<path fill="#FFFFFF" d="M372.4,125.9l-0.8-0.1l-3.1-6.7l6.9-3.2l0.7,1.6l-5.1,2.4l1.6,3.3c0.3-0.6,0.8-1,1.5-1.3
		c1.3-0.6,2.4-0.7,3.5-0.2c1,0.5,1.9,1.4,2.5,2.8c1.6,3.5,0.9,5.9-2.2,7.3c-1.3,0.6-2.5,0.7-3.7,0.4l0-1.9c1.2,0.3,2.2,0.3,3-0.1
		c1.8-0.8,2.1-2.3,1.1-4.5c-1-2.1-2.3-2.7-4.1-1.9C373.4,124.2,372.8,124.9,372.4,125.9z"/>
</g>
<g>
	<path fill="#FFFFFF" d="M332,156.1l0.1-1.9c1,0.3,1.9,0.2,2.8-0.3c1.7-1,2-2.3,1.1-3.9c-0.4-0.7-1-1.2-1.8-1.4
		c-0.8-0.2-1.5,0-2.3,0.4l-0.1,0.1l-0.8-1.5l0.1,0c1.5-0.9,1.9-2,1.1-3.3c-0.8-1.4-1.9-1.7-3.4-0.9c-0.8,0.4-1.2,1.1-1.4,1.9
		l-1.5-0.8c0.1-1,0.9-1.9,2.2-2.7c1.1-0.7,2.3-0.9,3.3-0.7c1.1,0.2,1.9,0.8,2.4,1.7c0.4,0.7,0.6,1.5,0.5,2.3c-0.1,0.8-0.3,1.4-0.8,2
		c0.9-0.2,1.7-0.1,2.5,0.2c0.8,0.3,1.4,0.9,1.9,1.8c0.7,1.2,0.9,2.4,0.5,3.5c-0.4,1.1-1.3,2.1-2.7,2.9c-0.6,0.3-1.2,0.6-1.9,0.7
		C333.1,156.2,332.5,156.2,332,156.1z"/>
	<path fill="#FFFFFF" d="M337.7,144.7c-1.1-1.9-1.6-3.7-1.5-5.3c0.1-1.6,0.8-2.9,2.2-3.7c1.4-0.8,2.7-0.9,4-0.3
		c1.3,0.6,2.6,2.1,4,4.6c1.2,2.1,1.8,4,1.8,5.7s-0.7,2.9-2.1,3.7s-2.7,0.9-4,0.4C340.8,149.2,339.4,147.5,337.7,144.7z M339.6,143.9
		c2.1,3.6,3.9,5,5.5,4.1c0.9-0.5,1.3-1.3,1.3-2.3c0-1.1-0.7-2.6-1.8-4.6c-0.8-1.4-1.5-2.4-2-2.9c-0.5-0.6-1.1-0.9-1.6-1
		c-0.6-0.1-1.1,0-1.7,0.3C337.6,138.3,337.7,140.5,339.6,143.9z"/>
</g>
<g>
	<path fill="#FFFFFF" d="M294.6,182.3l-0.2-0.3l-0.3-8.7c-0.1-1.8-0.4-3.2-1-4c-0.8-1.2-1.9-1.3-3.2-0.4c-0.5,0.3-0.8,0.7-1,1.3
		c-0.2,0.5-0.3,1-0.2,1.5l-1.7-0.1c-0.2-0.7-0.1-1.4,0.2-2.1c0.3-0.7,0.9-1.4,1.7-1.9c1.2-0.8,2.3-1.2,3.4-1.1
		c1.1,0.1,1.9,0.6,2.7,1.6c0.7,0.9,1,2.4,1.1,4.5l0.3,6.4l4.9-3.4l1.1,1.5L294.6,182.3z"/>
	<path fill="#FFFFFF" d="M300.8,168.9l-0.9,0l-4.2-6l6.2-4.3l1,1.4l-4.6,3.2l2.1,3c0.2-0.6,0.6-1.1,1.3-1.6c1.2-0.8,2.3-1.1,3.4-0.8
		c1.1,0.3,2.1,1,3,2.3c2.2,3.1,1.9,5.7-0.9,7.6c-1.2,0.8-2.4,1.2-3.6,1.1l-0.3-1.9c1.2,0.1,2.2-0.1,2.9-0.6c1.6-1.1,1.7-2.7,0.3-4.7
		c-1.3-1.9-2.7-2.2-4.3-1.1C301.4,167,301,167.8,300.8,168.9z"/>
</g>
<g>
	<path fill="#FFFFFF" d="M259.3,210.5l-0.3-0.3l-1-8.6c-0.2-1.8-0.7-3.1-1.4-3.9c-0.9-1.1-2-1.1-3.2-0.1c-0.4,0.4-0.7,0.8-0.9,1.4
		c-0.2,0.5-0.2,1.1-0.1,1.5l-1.7,0c-0.3-0.7-0.2-1.4,0-2.1c0.3-0.8,0.8-1.4,1.5-2.1c1.1-0.9,2.2-1.4,3.3-1.4c1.1,0,2,0.5,2.8,1.4
		c0.7,0.9,1.2,2.3,1.5,4.4l0.9,6.3l4.6-3.8l1.2,1.4L259.3,210.5z"/>
	<path fill="#FFFFFF" d="M262.6,197.2c-1.4-1.7-2.2-3.3-2.4-4.9c-0.2-1.6,0.3-3,1.5-4c1.2-1,2.5-1.4,3.9-1c1.4,0.4,2.9,1.6,4.8,3.8
		c1.6,1.9,2.5,3.6,2.8,5.3c0.3,1.6-0.2,3-1.5,4c-1.2,1-2.5,1.4-3.9,1C266.4,201.1,264.7,199.7,262.6,197.2z M264.3,196
		c2.7,3.2,4.8,4.3,6.1,3.1c0.8-0.7,1.1-1.5,0.8-2.5c-0.2-1-1.1-2.4-2.6-4.2c-1-1.2-1.9-2.1-2.5-2.5c-0.6-0.5-1.2-0.7-1.8-0.7
		c-0.6,0-1.1,0.2-1.6,0.6C261.3,190.9,261.8,193,264.3,196z"/>
</g>
<g>
	<path fill="#FFFFFF" d="M229.8,238.5l-8.2-8.2l-0.8,3.6l-1.4-1.4c0.3-0.8,0.5-1.8,0.6-2.9c0.1-1.1,0.2-2.1,0.1-2.8l0.4-0.4
		l10.8,10.8L229.8,238.5z"/>
	<path fill="#FFFFFF" d="M230.5,227.3l-0.8,0.2l-5.2-5.2l5.3-5.3l1.2,1.2l-4,4l2.6,2.6c0.1-0.6,0.4-1.2,1-1.8c1-1,2.1-1.5,3.2-1.4
		s2.2,0.7,3.3,1.8c2.7,2.7,2.8,5.2,0.4,7.6c-1,1-2.1,1.6-3.3,1.7l-0.7-1.8c1.2-0.1,2.1-0.5,2.7-1.1c1.4-1.4,1.2-2.9-0.5-4.7
		c-1.6-1.6-3.1-1.7-4.4-0.4C230.8,225.4,230.4,226.3,230.5,227.3z"/>
</g>
<g>
	<path fill="#FFFFFF" d="M199.7,272.2l-8.9-7.5l-0.5,3.6l-1.5-1.2c0.2-0.9,0.3-1.8,0.4-3c0-1.1,0-2.1-0.2-2.8l0.4-0.5l11.7,9.8
		L199.7,272.2z"/>
	<path fill="#FFFFFF" d="M197.8,261.9c-1.7-1.4-2.8-2.9-3.2-4.5c-0.5-1.6-0.2-3,0.8-4.2c1-1.2,2.2-1.8,3.6-1.6
		c1.4,0.1,3.2,1.1,5.4,3c1.9,1.6,3.1,3.1,3.6,4.7c0.5,1.5,0.3,2.9-0.7,4.2c-1,1.2-2.3,1.8-3.7,1.7
		C202.2,265.1,200.3,264,197.8,261.9z M199.3,260.4c3.2,2.7,5.4,3.4,6.6,2c0.7-0.8,0.8-1.7,0.4-2.6c-0.4-1-1.5-2.2-3.3-3.7
		c-1.2-1-2.2-1.7-2.9-2.1c-0.7-0.3-1.3-0.5-1.9-0.4c-0.6,0.1-1,0.3-1.5,0.8C195.4,255.9,196.3,257.9,199.3,260.4z"/>
</g>
<g>
	<path fill="#FFFFFF" d="M166.1,301.8l-0.8,0.3l-6-4.2l4.3-6.2l1.4,1l-3.2,4.6l3,2.1c0-0.6,0.2-1.3,0.7-1.9c0.8-1.2,1.8-1.8,2.9-1.9
		c1.1-0.1,2.3,0.3,3.6,1.2c3.1,2.2,3.7,4.7,1.8,7.5c-0.8,1.2-1.8,1.9-3,2.2l-1-1.6c1.2-0.3,2-0.9,2.5-1.6c1.1-1.6,0.7-3.1-1.3-4.5
		c-1.9-1.3-3.3-1.2-4.4,0.4C166,299.9,165.8,300.8,166.1,301.8z"/>
</g>
<g>
	<path fill="#FFFFFF" d="M145.8,349.6L145,348c1-0.2,1.7-0.8,2.3-1.7c1-1.7,0.6-3-1-3.9c-0.7-0.4-1.5-0.5-2.2-0.3
		c-0.7,0.2-1.3,0.7-1.8,1.5l-0.1,0.1l-1.5-0.8l0-0.1c0.9-1.5,0.6-2.7-0.7-3.4c-1.4-0.8-2.5-0.5-3.3,0.9c-0.4,0.8-0.5,1.5-0.3,2.3
		l-1.7,0.1c-0.4-1-0.2-2.1,0.5-3.4c0.7-1.2,1.5-1.9,2.5-2.3c1-0.4,2-0.3,3,0.3c0.7,0.4,1.3,1,1.6,1.7c0.3,0.7,0.4,1.4,0.3,2.1
		c0.7-0.6,1.4-1,2.3-1.1c0.8-0.1,1.7,0.1,2.5,0.6c1.2,0.7,1.9,1.6,2.2,2.8c0.2,1.2-0.1,2.4-0.9,3.8c-0.3,0.6-0.8,1.1-1.3,1.5
		C146.9,349.2,146.3,349.5,145.8,349.6z"/>
	<path fill="#FFFFFF" d="M145.1,336.9c-1.9-1.1-3.2-2.4-4-3.8c-0.7-1.5-0.7-2.9,0.1-4.3c0.8-1.4,1.9-2.1,3.3-2.2
		c1.4-0.1,3.3,0.5,5.8,2c2.1,1.2,3.6,2.6,4.4,4c0.8,1.4,0.8,2.8,0,4.2c-0.8,1.4-1.9,2.2-3.3,2.3C150,339.2,147.9,338.5,145.1,336.9z
		 M146.3,335.2c3.6,2.1,5.9,2.4,6.8,0.8c0.5-0.9,0.5-1.8-0.1-2.7c-0.6-0.9-1.9-1.9-3.9-3.1c-1.4-0.8-2.5-1.3-3.2-1.5
		c-0.7-0.2-1.4-0.2-1.9-0.1c-0.5,0.2-1,0.5-1.3,1.1C141.8,331.4,143,333.2,146.3,335.2z"/>
</g>
<g>
	<path fill="#FFFFFF" d="M126.5,391l-0.4-0.2l-4.6-7.4c-1-1.5-1.9-2.5-2.9-3c-1.3-0.6-2.2-0.2-2.9,1.3c-0.2,0.5-0.3,1-0.3,1.6
		c0.1,0.6,0.2,1,0.6,1.4l-1.6,0.7c-0.5-0.5-0.8-1.1-0.9-1.9c-0.1-0.8,0.1-1.6,0.5-2.5c0.6-1.3,1.4-2.2,2.4-2.7c1-0.5,2-0.4,3.1,0.1
		c1,0.5,2.1,1.6,3.2,3.3l3.5,5.4l2.5-5.4l1.7,0.8L126.5,391z"/>
	<path fill="#FFFFFF" d="M125.2,376.2l-0.7,0.4l-6.7-3.1l3.2-6.9l1.6,0.7l-2.4,5.1l3.3,1.6c-0.1-0.6,0-1.3,0.3-2
		c0.6-1.3,1.4-2.1,2.5-2.4c1.1-0.3,2.3-0.1,3.7,0.5c3.5,1.6,4.5,4,3,7c-0.6,1.3-1.5,2.2-2.6,2.7l-1.2-1.5c1.1-0.5,1.8-1.2,2.2-2
		c0.8-1.8,0.1-3.2-2.1-4.2c-2.1-1-3.5-0.6-4.3,1.2C124.8,374.3,124.8,375.2,125.2,376.2z"/>
</g>
<g>
	<path fill="#FFFFFF" d="M110.1,433l-0.4-0.1l-5.2-7c-1.1-1.5-2.1-2.4-3.1-2.7c-1.3-0.5-2.3,0-2.8,1.5c-0.2,0.5-0.2,1.1-0.1,1.6
		c0.1,0.6,0.3,1,0.7,1.4l-1.5,0.9c-0.6-0.5-0.9-1.1-1-1.9s0-1.6,0.3-2.6c0.5-1.4,1.2-2.3,2.1-2.9c0.9-0.5,2-0.6,3.1-0.2
		c1.1,0.4,2.2,1.4,3.5,3l3.9,5.1l2-5.6l1.8,0.6L110.1,433z"/>
	<path fill="#FFFFFF" d="M106.3,419.9c-2.1-0.7-3.6-1.8-4.6-3.1c-1-1.3-1.2-2.7-0.7-4.2c0.5-1.5,1.5-2.4,2.8-2.8
		c1.4-0.4,3.4,0,6.1,0.9c2.3,0.8,4,1.9,5,3.2c1,1.3,1.3,2.7,0.7,4.2c-0.6,1.5-1.5,2.5-2.9,2.9C111.6,421.3,109.4,421,106.3,419.9z
		 M107.2,418c4,1.4,6.2,1.3,6.9-0.4c0.4-1,0.2-1.8-0.5-2.6c-0.7-0.8-2.2-1.6-4.4-2.4c-1.5-0.6-2.7-0.9-3.4-1c-0.8-0.1-1.4,0-1.9,0.3
		c-0.5,0.3-0.9,0.7-1.1,1.3C102.1,415.1,103.6,416.6,107.2,418z"/>
</g>
<g>
	<path fill="#FFFFFF" d="M98.5,472.1l-11.3-3l1.1,3.5l-1.9-0.5c-0.2-0.9-0.5-1.8-0.9-2.8c-0.4-1-0.9-1.9-1.4-2.5l0.2-0.6l14.7,4
		L98.5,472.1z"/>
	<path fill="#FFFFFF" d="M93.6,462.1l-0.7,0.6l-7.1-1.9l2-7.3l1.7,0.5l-1.4,5.4l3.6,1c-0.2-0.6-0.3-1.3,0-2c0.4-1.4,1.1-2.3,2.1-2.8
		c1-0.5,2.3-0.5,3.8-0.1c3.7,1,5.1,3.1,4.2,6.4c-0.4,1.4-1.1,2.4-2.1,3.1l-1.5-1.2c1-0.7,1.6-1.5,1.8-2.3c0.5-1.9-0.4-3.1-2.8-3.8
		c-2.2-0.6-3.5,0-4,1.9C92.8,460.2,93,461.1,93.6,462.1z"/>
</g>
<g>
	<path fill="#FFFFFF" d="M89.3,516.3l-11.5-2l1.4,3.4l-1.9-0.3c-0.3-0.8-0.6-1.8-1.2-2.7c-0.5-1-1.1-1.8-1.6-2.4l0.1-0.6l15,2.7
		L89.3,516.3z"/>
	<path fill="#FFFFFF" d="M82.5,508.3c-2.2-0.4-3.8-1.1-5-2.2s-1.7-2.5-1.4-4c0.3-1.6,1-2.6,2.3-3.2c1.3-0.6,3.3-0.6,6.1-0.1
		c2.4,0.4,4.3,1.2,5.5,2.2c1.2,1.1,1.7,2.4,1.5,4c-0.3,1.6-1.1,2.7-2.3,3.3C87.9,508.9,85.7,508.9,82.5,508.3z M83,506.3
		c4.1,0.7,6.4,0.2,6.7-1.6c0.2-1-0.1-1.8-1-2.5c-0.8-0.6-2.4-1.2-4.7-1.6c-1.6-0.3-2.8-0.4-3.5-0.3c-0.8,0.1-1.4,0.2-1.8,0.6
		c-0.5,0.3-0.7,0.8-0.8,1.5C77.5,504.3,79.2,505.6,83,506.3z"/>
</g>
<g>
	<path fill="#FFFFFF" d="M76.3,557.6l-0.5,0.7l-7.3-0.6l0.7-7.5l1.8,0.2l-0.5,5.6l3.7,0.3c-0.3-0.5-0.5-1.2-0.4-2
		c0.1-1.4,0.6-2.4,1.5-3.1c0.9-0.7,2.1-0.9,3.7-0.8c3.8,0.3,5.5,2.2,5.3,5.6c-0.1,1.4-0.6,2.5-1.5,3.4l-1.7-0.9
		c0.8-0.9,1.3-1.7,1.4-2.6c0.2-1.9-1-3-3.4-3.2c-2.3-0.2-3.5,0.7-3.6,2.6C75.2,555.9,75.6,556.8,76.3,557.6z"/>
</g>
<g>
	<path fill="#FFFFFF" d="M81.4,610.3l-1.6-1c0.7-0.7,1.1-1.5,1.1-2.6c0-1.9-0.9-2.9-2.8-2.9c-0.9,0-1.6,0.3-2.1,0.8
		s-0.8,1.3-0.8,2.2v0.2h-1.7v-0.1c0-1.8-0.8-2.6-2.3-2.6c-1.6,0-2.4,0.8-2.4,2.5c0,0.9,0.3,1.6,0.9,2.1l-1.4,0.9
		c-0.8-0.6-1.3-1.7-1.3-3.2c0-1.3,0.4-2.4,1.1-3.2c0.7-0.8,1.6-1.3,2.7-1.3c0.8,0,1.6,0.2,2.2,0.7c0.7,0.5,1.1,1,1.3,1.6
		c0.3-0.9,0.8-1.6,1.4-2.1c0.7-0.5,1.5-0.8,2.5-0.8c1.4,0,2.5,0.4,3.3,1.3c0.8,0.9,1.2,2.1,1.2,3.8c0,0.7-0.1,1.3-0.4,2
		C82,609.4,81.7,609.9,81.4,610.3z"/>
	<path fill="#FFFFFF" d="M74.4,599.6c-2.2,0-4-0.4-5.3-1.3c-1.4-0.9-2.1-2.1-2.1-3.7c0-1.6,0.6-2.8,1.7-3.6c1.1-0.8,3.2-1.2,6-1.2
		c2.5,0,4.4,0.4,5.8,1.3c1.4,0.8,2.1,2.1,2.1,3.7c0,1.6-0.6,2.8-1.7,3.7C79.8,599.2,77.6,599.6,74.4,599.6z M74.6,597.5
		c4.2,0,6.3-0.9,6.3-2.7c0-1-0.5-1.8-1.4-2.3c-0.9-0.5-2.6-0.7-4.9-0.7c-1.6,0-2.8,0.1-3.5,0.3s-1.3,0.5-1.7,0.9
		c-0.4,0.4-0.6,0.9-0.6,1.6C68.8,596.5,70.7,597.5,74.6,597.5z"/>
</g>
<g>
	<path fill="#FFFFFF" d="M85.3,655.7l-0.4,0l-7.7-4.1c-1.6-0.9-2.9-1.2-4-1.2c-1.4,0.1-2,1-1.9,2.6c0,0.6,0.2,1.1,0.6,1.5
		c0.3,0.5,0.7,0.8,1.2,1l-1,1.4c-0.7-0.2-1.3-0.6-1.7-1.2c-0.5-0.7-0.7-1.5-0.8-2.4c-0.1-1.5,0.1-2.6,0.7-3.5
		c0.6-0.9,1.5-1.4,2.7-1.5c1.1-0.1,2.6,0.3,4.4,1.3l5.7,2.9l-0.5-5.9l1.9-0.2L85.3,655.7z"/>
	<path fill="#FFFFFF" d="M76.8,643.6l-0.4,0.7l-7.3,0.6l-0.7-7.5l1.8-0.2l0.5,5.6l3.7-0.3c-0.4-0.5-0.7-1.1-0.7-1.9
		c-0.1-1.4,0.2-2.5,1-3.3c0.8-0.8,1.9-1.3,3.5-1.4c3.8-0.3,5.8,1.2,6.1,4.6c0.1,1.4-0.2,2.6-0.9,3.6l-1.8-0.6c0.7-1,1-1.9,0.9-2.8
		c-0.2-1.9-1.5-2.8-3.9-2.6c-2.3,0.2-3.3,1.3-3.1,3.2C75.5,642.1,76,642.9,76.8,643.6z"/>
</g>
<g>
	<path fill="#FFFFFF" d="M92.1,700.4l-0.4,0.1l-8-3.4c-1.7-0.7-3-1-4.1-0.8c-1.4,0.2-1.9,1.1-1.7,2.7c0.1,0.6,0.3,1,0.7,1.5
		c0.4,0.4,0.8,0.7,1.3,0.9l-0.9,1.5c-0.7-0.1-1.3-0.5-1.8-1.1c-0.5-0.6-0.9-1.4-1-2.4c-0.3-1.4-0.1-2.6,0.4-3.5
		c0.5-0.9,1.4-1.5,2.6-1.7c1.1-0.2,2.6,0.1,4.5,0.9l5.9,2.4l-1-5.9l1.8-0.3L92.1,700.4z"/>
	<path fill="#FFFFFF" d="M82.3,690.9c-2.2,0.4-4,0.3-5.5-0.4c-1.5-0.6-2.4-1.7-2.7-3.3c-0.3-1.6,0.1-2.8,1.1-3.8
		c1-1,2.9-1.7,5.7-2.2c2.4-0.4,4.4-0.4,5.9,0.2c1.5,0.6,2.4,1.7,2.7,3.2c0.3,1.6-0.1,2.9-1,3.9C87.5,689.5,85.5,690.3,82.3,690.9z
		 M82.1,688.8c4.1-0.7,6.1-2,5.8-3.8c-0.2-1-0.8-1.7-1.8-2c-1-0.3-2.7-0.3-5,0.1c-1.6,0.3-2.7,0.6-3.4,0.9c-0.7,0.3-1.2,0.7-1.5,1.2
		c-0.3,0.5-0.4,1-0.3,1.7C76.2,688.8,78.3,689.5,82.1,688.8z"/>
</g>
<g>
	<path fill="#FFFFFF" d="M101.7,740l-11.3,3l2.7,2.5l-1.9,0.5c-0.6-0.7-1.3-1.3-2.2-2c-0.9-0.7-1.7-1.2-2.4-1.5l-0.2-0.6l14.7-4
		L101.7,740z"/>
	<path fill="#FFFFFF" d="M92.3,733.8l-0.3,0.8l-7.1,1.9l-2-7.3l1.7-0.5l1.4,5.4l3.6-1c-0.5-0.4-0.9-1-1.1-1.7
		c-0.4-1.4-0.2-2.5,0.4-3.5c0.6-0.9,1.7-1.6,3.2-2c3.7-1,6,0.2,6.8,3.4c0.4,1.4,0.3,2.6-0.2,3.7l-1.9-0.3c0.5-1.1,0.6-2.1,0.4-2.9
		c-0.5-1.9-1.9-2.5-4.3-1.9c-2.2,0.6-3,1.8-2.5,3.7C90.8,732.6,91.4,733.3,92.3,733.8z"/>
</g>
<g>
	<path fill="#FFFFFF" d="M115.7,782.9l-11,4l2.9,2.2l-1.8,0.7c-0.6-0.6-1.4-1.2-2.4-1.8c-1-0.6-1.8-1-2.6-1.3l-0.2-0.6l14.3-5.2
		L115.7,782.9z"/>
	<path fill="#FFFFFF" d="M105.9,779.4c-2.1,0.7-3.9,0.9-5.5,0.6c-1.6-0.4-2.7-1.3-3.2-2.8c-0.5-1.5-0.4-2.8,0.4-4
		c0.8-1.1,2.6-2.2,5.2-3.2c2.3-0.8,4.3-1.1,5.9-0.8c1.6,0.3,2.7,1.2,3.3,2.7s0.4,2.9-0.4,4C110.8,777.1,108.9,778.3,105.9,779.4z
		 M105.3,777.4c4-1.4,5.6-3,5-4.7c-0.4-1-1.1-1.5-2.1-1.7c-1-0.1-2.7,0.2-4.9,1c-1.5,0.6-2.6,1-3.2,1.5c-0.6,0.4-1.1,0.9-1.3,1.4
		c-0.2,0.5-0.2,1.1,0,1.7C99.5,778.4,101.7,778.7,105.3,777.4z"/>
</g>
<g>
	<path fill="#FFFFFF" d="M126.8,826.6l-0.1,0.8l-6.7,3.1l-3.2-6.9l1.6-0.7l2.4,5.1l3.3-1.6c-0.6-0.3-1-0.8-1.3-1.5
		c-0.6-1.3-0.7-2.4-0.2-3.5c0.5-1,1.4-1.9,2.8-2.5c3.5-1.6,5.9-0.9,7.3,2.2c0.6,1.3,0.7,2.5,0.4,3.7l-1.9,0c0.3-1.2,0.3-2.2-0.1-3
		c-0.8-1.8-2.3-2.1-4.5-1.1c-2.1,1-2.7,2.3-1.9,4.1C125.1,825.7,125.8,826.3,126.8,826.6z"/>
</g>
<g>
	<path fill="#FFFFFF" d="M155.9,868.2l-1.9-0.1c0.3-1,0.2-1.9-0.3-2.8c-1-1.7-2.3-2-3.9-1.1c-0.7,0.4-1.2,1-1.4,1.8
		c-0.2,0.8,0,1.5,0.4,2.3l0.1,0.1l-1.5,0.8l0-0.1c-0.9-1.5-2-1.9-3.3-1.1c-1.4,0.8-1.7,1.9-0.9,3.4c0.4,0.8,1.1,1.2,1.9,1.4
		l-0.8,1.5c-1-0.1-1.9-0.9-2.7-2.2c-0.7-1.2-0.9-2.3-0.7-3.3c0.2-1.1,0.8-1.9,1.7-2.4c0.7-0.4,1.5-0.6,2.3-0.5
		c0.8,0.1,1.4,0.3,2,0.8c-0.2-0.9-0.1-1.7,0.2-2.5c0.3-0.8,0.9-1.4,1.8-1.9c1.2-0.7,2.4-0.9,3.5-0.5c1.1,0.4,2.1,1.3,2.9,2.7
		c0.3,0.6,0.6,1.2,0.7,1.9C156,867.1,156,867.7,155.9,868.2z"/>
	<path fill="#FFFFFF" d="M144.5,862.5c-1.9,1.1-3.7,1.6-5.3,1.5c-1.6-0.1-2.9-0.8-3.7-2.2c-0.8-1.4-0.9-2.7-0.3-4
		c0.6-1.3,2.1-2.6,4.6-4c2.1-1.2,4-1.8,5.7-1.8s2.9,0.7,3.7,2.1c0.8,1.4,0.9,2.7,0.4,4C149,859.4,147.3,860.8,144.5,862.5z
		 M143.6,860.6c3.6-2.1,5-3.9,4.1-5.5c-0.5-0.9-1.3-1.3-2.3-1.3c-1.1,0-2.6,0.7-4.6,1.8c-1.4,0.8-2.4,1.5-2.9,2
		c-0.6,0.5-0.9,1.1-1,1.6s0,1.1,0.3,1.7C138.1,862.6,140.3,862.5,143.6,860.6z"/>
</g>
<g>
	<path fill="#FFFFFF" d="M182,905.6l-0.3,0.2l-8.7,0.3c-1.8,0.1-3.2,0.4-4,1c-1.2,0.8-1.3,1.9-0.4,3.2c0.3,0.5,0.7,0.8,1.3,1
		s1,0.3,1.5,0.2l-0.1,1.7c-0.7,0.2-1.4,0.1-2.1-0.2c-0.7-0.3-1.4-0.9-1.9-1.7c-0.8-1.2-1.2-2.3-1.1-3.4c0.1-1.1,0.6-1.9,1.6-2.7
		c0.9-0.7,2.4-1,4.5-1.1l6.4-0.3l-3.4-4.9l1.5-1.1L182,905.6z"/>
	<path fill="#FFFFFF" d="M168.6,899.4l0,0.9l-6,4.2l-4.3-6.2l1.4-1l3.2,4.6l3-2.1c-0.6-0.2-1.1-0.6-1.6-1.3
		c-0.8-1.2-1.1-2.3-0.8-3.4c0.3-1.1,1-2.1,2.3-3c3.1-2.2,5.7-1.9,7.6,0.9c0.8,1.2,1.2,2.4,1.1,3.6l-1.9,0.3c0.1-1.2-0.1-2.2-0.6-2.9
		c-1.1-1.6-2.7-1.7-4.7-0.3c-1.9,1.3-2.2,2.7-1.1,4.3C166.7,898.7,167.5,899.2,168.6,899.4z"/>
</g>
<g>
	<path fill="#FFFFFF" d="M210.3,940.9l-0.3,0.3l-8.6,1c-1.8,0.2-3.1,0.7-3.9,1.4c-1.1,0.9-1.1,2-0.1,3.2c0.4,0.4,0.8,0.7,1.4,0.9
		c0.5,0.2,1.1,0.2,1.5,0.1l0,1.7c-0.7,0.3-1.4,0.2-2.1,0c-0.7-0.3-1.4-0.8-2.1-1.5c-0.9-1.1-1.4-2.2-1.4-3.3c0-1.1,0.5-2,1.4-2.8
		c0.9-0.7,2.3-1.2,4.4-1.5l6.3-0.9l-3.8-4.6l1.4-1.2L210.3,940.9z"/>
	<path fill="#FFFFFF" d="M197,937.6c-1.7,1.4-3.3,2.2-4.9,2.4c-1.6,0.2-3-0.3-4-1.5c-1-1.2-1.4-2.5-1-3.9c0.4-1.4,1.6-2.9,3.8-4.8
		c1.9-1.6,3.6-2.5,5.3-2.8c1.6-0.3,3,0.2,4,1.5c1,1.2,1.4,2.5,1,3.9C200.8,933.8,199.4,935.5,197,937.6z M195.8,935.8
		c3.2-2.7,4.3-4.8,3.1-6.1c-0.7-0.8-1.5-1.1-2.5-0.8c-1,0.2-2.4,1.1-4.2,2.6c-1.2,1-2.1,1.9-2.5,2.5c-0.5,0.6-0.7,1.2-0.7,1.8
		c0,0.6,0.2,1.1,0.6,1.6C190.7,938.8,192.8,938.3,195.8,935.8z"/>
</g>
<g>
	<path fill="#FFFFFF" d="M238.3,970.4l-8.2,8.2l3.6,0.8l-1.4,1.4c-0.8-0.3-1.8-0.5-2.9-0.6c-1.1-0.1-2.1-0.2-2.8-0.1l-0.4-0.4
		l10.8-10.8L238.3,970.4z"/>
	<path fill="#FFFFFF" d="M227.1,969.7l0.2,0.8l-5.2,5.2l-5.3-5.3l1.2-1.2l4,4l2.6-2.6c-0.6-0.1-1.2-0.4-1.8-1c-1-1-1.5-2.1-1.4-3.2
		c0.1-1.1,0.7-2.2,1.8-3.3c2.7-2.7,5.2-2.8,7.6-0.4c1,1,1.6,2.1,1.7,3.3l-1.8,0.7c-0.1-1.2-0.5-2.1-1.1-2.7
		c-1.4-1.4-2.9-1.2-4.7,0.5c-1.6,1.6-1.7,3.1-0.4,4.4C225.2,969.4,226,969.8,227.1,969.7z"/>
</g>
<g>
	<path fill="#FFFFFF" d="M271.9,1000.5l-7.5,8.9l3.6,0.5l-1.2,1.5c-0.9-0.2-1.8-0.3-3-0.4c-1.1,0-2.1,0-2.8,0.2l-0.5-0.4l9.8-11.7
		L271.9,1000.5z"/>
	<path fill="#FFFFFF" d="M261.7,1002.4c-1.4,1.7-2.9,2.8-4.5,3.2s-3,0.2-4.2-0.8c-1.2-1-1.8-2.2-1.6-3.6c0.1-1.4,1.1-3.2,3-5.4
		c1.6-1.9,3.1-3.1,4.7-3.6c1.6-0.5,2.9-0.3,4.2,0.7c1.2,1,1.8,2.3,1.7,3.7C264.8,998,263.7,999.9,261.7,1002.4z M260.2,1000.9
		c2.7-3.2,3.4-5.4,2-6.6c-0.8-0.7-1.7-0.8-2.6-0.4s-2.2,1.5-3.7,3.3c-1,1.2-1.7,2.2-2.1,2.9c-0.3,0.7-0.5,1.3-0.4,1.9
		c0.1,0.6,0.3,1,0.8,1.5C255.7,1004.8,257.7,1003.9,260.2,1000.9z"/>
</g>
<g>
	<path fill="#FFFFFF" d="M301.6,1030.8l0.3,0.8l-4.2,6l-6.2-4.3l1-1.4l4.6,3.2l2.1-3c-0.6,0-1.3-0.2-1.9-0.7
		c-1.2-0.8-1.8-1.8-1.9-2.9c-0.1-1.1,0.3-2.3,1.2-3.6c2.2-3.1,4.7-3.7,7.5-1.8c1.2,0.8,1.9,1.8,2.2,3l-1.6,1c-0.3-1.2-0.9-2-1.6-2.5
		c-1.6-1.1-3.1-0.7-4.5,1.3c-1.3,1.9-1.2,3.3,0.4,4.4C299.6,1030.8,300.5,1031,301.6,1030.8z"/>
</g>
<g>
	<path fill="#FFFFFF" d="M349.4,1054.4l-1.7,0.9c-0.2-1-0.8-1.7-1.7-2.3c-1.7-1-3-0.6-3.9,1c-0.4,0.7-0.5,1.5-0.3,2.2
		c0.2,0.7,0.7,1.3,1.5,1.8l0.1,0.1l-0.8,1.5l-0.1,0c-1.5-0.9-2.7-0.6-3.4,0.7c-0.8,1.4-0.5,2.5,0.9,3.3c0.8,0.4,1.5,0.5,2.3,0.3
		l0.1,1.7c-1,0.4-2.1,0.2-3.4-0.5c-1.2-0.7-1.9-1.5-2.3-2.5c-0.4-1-0.3-2,0.3-3c0.4-0.7,1-1.3,1.7-1.6c0.7-0.3,1.4-0.4,2.1-0.3
		c-0.6-0.7-1-1.4-1.1-2.3c-0.1-0.8,0.1-1.7,0.6-2.5c0.7-1.2,1.6-1.9,2.8-2.2c1.2-0.2,2.4,0.1,3.8,0.9c0.6,0.3,1.1,0.8,1.5,1.3
		C348.9,1053.3,349.2,1053.9,349.4,1054.4z"/>
	<path fill="#FFFFFF" d="M336.6,1055.1c-1.1,1.9-2.4,3.2-3.8,4c-1.5,0.7-2.9,0.7-4.3-0.1c-1.4-0.8-2.1-1.9-2.2-3.3
		c-0.1-1.4,0.5-3.3,2-5.8c1.2-2.1,2.6-3.6,4-4.4c1.4-0.8,2.8-0.8,4.2,0c1.4,0.8,2.2,1.9,2.3,3.3
		C339,1050.2,338.2,1052.3,336.6,1055.1z M334.9,1053.9c2.1-3.6,2.4-5.9,0.8-6.8c-0.9-0.5-1.8-0.5-2.7,0.1c-0.9,0.6-1.9,1.9-3.1,3.9
		c-0.8,1.4-1.3,2.5-1.5,3.2c-0.2,0.7-0.2,1.4-0.1,1.9c0.2,0.5,0.5,1,1.1,1.3C331.2,1058.4,333,1057.2,334.9,1053.9z"/>
</g>
<g>
	<path fill="#FFFFFF" d="M390.7,1073.7l-0.2,0.4l-7.4,4.6c-1.5,1-2.5,1.9-3,2.9c-0.6,1.3-0.2,2.2,1.3,2.9c0.5,0.2,1,0.3,1.6,0.3
		c0.6-0.1,1.1-0.2,1.4-0.6l0.7,1.6c-0.5,0.5-1.1,0.8-1.9,0.9s-1.6-0.1-2.5-0.5c-1.3-0.6-2.2-1.4-2.7-2.4s-0.4-2,0.1-3.1
		c0.5-1,1.6-2.1,3.3-3.2l5.4-3.5l-5.4-2.5l0.8-1.7L390.7,1073.7z"/>
	<path fill="#FFFFFF" d="M376,1075l0.4,0.7l-3.1,6.7l-6.9-3.2l0.7-1.6l5.1,2.4l1.6-3.3c-0.6,0.1-1.3,0-2-0.3
		c-1.3-0.6-2.1-1.4-2.4-2.5c-0.3-1.1-0.1-2.3,0.5-3.7c1.6-3.5,4-4.5,7-3c1.3,0.6,2.2,1.5,2.7,2.6l-1.5,1.2c-0.5-1.1-1.2-1.8-2-2.2
		c-1.8-0.8-3.2-0.1-4.2,2.1c-1,2.1-0.6,3.5,1.2,4.3C374,1075.4,375,1075.4,376,1075z"/>
</g>
<g>
	<path fill="#FFFFFF" d="M432.8,1090.1l-0.1,0.4l-7,5.2c-1.5,1.1-2.4,2.1-2.7,3.1c-0.5,1.3,0,2.2,1.5,2.8c0.5,0.2,1.1,0.2,1.6,0.1
		s1-0.3,1.4-0.7l0.9,1.5c-0.5,0.6-1.1,0.9-1.9,1c-0.8,0.1-1.6,0-2.6-0.3c-1.4-0.5-2.3-1.2-2.9-2.1c-0.5-0.9-0.6-2-0.2-3.1
		c0.4-1.1,1.4-2.2,3-3.5l5.1-3.9l-5.6-2l0.6-1.8L432.8,1090.1z"/>
	<path fill="#FFFFFF" d="M419.6,1093.9c-0.7,2.1-1.8,3.6-3.1,4.6c-1.3,1-2.7,1.2-4.2,0.7c-1.5-0.5-2.4-1.5-2.8-2.8
		c-0.4-1.4,0-3.4,0.9-6.1c0.8-2.3,1.9-4,3.2-5c1.3-1,2.7-1.3,4.2-0.7c1.5,0.6,2.5,1.5,2.9,2.9
		C421.1,1088.6,420.7,1090.8,419.6,1093.9z M417.7,1093c1.4-4,1.3-6.2-0.4-6.9c-1-0.4-1.8-0.2-2.6,0.5s-1.6,2.2-2.4,4.4
		c-0.6,1.5-0.9,2.7-1,3.4c-0.1,0.8,0,1.4,0.3,1.9c0.3,0.5,0.7,0.9,1.3,1.1C414.8,1098.1,416.4,1096.6,417.7,1093z"/>
</g>
<g>
	<path fill="#FFFFFF" d="M471.8,1101.7l-3,11.3l3.5-1.1l-0.5,1.9c-0.9,0.2-1.8,0.5-2.8,0.9c-1,0.4-1.9,0.9-2.5,1.4l-0.6-0.2l4-14.7
		L471.8,1101.7z"/>
	<path fill="#FFFFFF" d="M461.8,1106.6l0.6,0.7l-1.9,7.1l-7.3-2l0.5-1.7l5.4,1.4l1-3.6c-0.6,0.2-1.3,0.2-2,0
		c-1.4-0.4-2.3-1.1-2.8-2.1c-0.5-1-0.5-2.3-0.1-3.8c1-3.7,3.1-5.1,6.4-4.2c1.4,0.4,2.4,1.1,3.1,2.1l-1.2,1.5c-0.7-1-1.5-1.6-2.3-1.8
		c-1.9-0.5-3.1,0.4-3.8,2.8c-0.6,2.2,0,3.5,1.9,4C460,1107.4,460.9,1107.2,461.8,1106.6z"/>
</g>
<g>
	<path fill="#FFFFFF" d="M516,1110.9l-2,11.5l3.4-1.4l-0.3,1.9c-0.8,0.3-1.8,0.6-2.7,1.2c-1,0.5-1.8,1.1-2.4,1.6l-0.6-0.1l2.7-15
		L516,1110.9z"/>
	<path fill="#FFFFFF" d="M508.1,1117.7c-0.4,2.2-1.1,3.8-2.2,5c-1.1,1.2-2.5,1.7-4,1.4c-1.6-0.3-2.6-1-3.2-2.3
		c-0.6-1.3-0.6-3.3-0.1-6.1c0.4-2.4,1.2-4.3,2.2-5.5c1.1-1.2,2.4-1.7,4-1.5c1.6,0.3,2.7,1.1,3.3,2.3
		C508.6,1112.3,508.6,1114.5,508.1,1117.7z M506.1,1117.2c0.7-4.1,0.2-6.4-1.6-6.7c-1-0.2-1.8,0.1-2.5,1c-0.6,0.8-1.2,2.4-1.6,4.7
		c-0.3,1.6-0.4,2.8-0.3,3.5c0.1,0.8,0.3,1.4,0.6,1.8s0.8,0.7,1.5,0.8C504.1,1122.7,505.4,1121,506.1,1117.2z"/>
</g>
<g>
	<path fill="#FFFFFF" d="M556.2,1123.9l0.7,0.5l-0.6,7.3l-7.5-0.7l0.2-1.8l5.6,0.5l0.3-3.7c-0.5,0.3-1.2,0.5-2,0.4
		c-1.4-0.1-2.4-0.6-3.1-1.5c-0.7-0.9-0.9-2.1-0.8-3.7c0.3-3.8,2.2-5.5,5.6-5.3c1.4,0.1,2.5,0.6,3.4,1.5l-0.9,1.7
		c-0.9-0.8-1.7-1.3-2.6-1.4c-1.9-0.2-3,1-3.2,3.4c-0.2,2.3,0.7,3.5,2.6,3.6C554.6,1125,555.4,1124.6,556.2,1123.9z"/>
</g>
<g>
	<path fill="#FFFFFF" d="M610,1118.8l-1,1.6c-0.7-0.7-1.5-1.1-2.6-1.1c-1.9,0-2.9,0.9-2.9,2.8c0,0.9,0.3,1.6,0.8,2.1
		c0.6,0.5,1.3,0.8,2.2,0.8h0.2v1.7h-0.1c-1.8,0-2.6,0.8-2.6,2.3c0,1.6,0.8,2.4,2.5,2.4c0.9,0,1.6-0.3,2.1-0.9l0.9,1.4
		c-0.6,0.8-1.7,1.3-3.2,1.3c-1.3,0-2.4-0.4-3.2-1.1c-0.8-0.7-1.3-1.6-1.3-2.7c0-0.8,0.2-1.6,0.7-2.2c0.5-0.7,1-1.1,1.6-1.3
		c-0.9-0.3-1.6-0.8-2.1-1.4c-0.5-0.7-0.8-1.5-0.8-2.5c0-1.4,0.4-2.5,1.3-3.3s2.1-1.2,3.8-1.2c0.7,0,1.3,0.1,2,0.4
		C609.1,1118.2,609.6,1118.5,610,1118.8z"/>
	<path fill="#FFFFFF" d="M599.3,1125.8c0,2.2-0.4,4-1.3,5.3c-0.9,1.4-2.1,2.1-3.7,2.1c-1.6,0-2.8-0.6-3.6-1.7s-1.2-3.2-1.2-6
		c0-2.5,0.4-4.4,1.3-5.8c0.8-1.4,2.1-2.1,3.7-2.1s2.8,0.6,3.7,1.7C598.9,1120.4,599.3,1122.6,599.3,1125.8z M597.3,1125.6
		c0-4.2-0.9-6.3-2.7-6.3c-1,0-1.8,0.5-2.3,1.4c-0.5,0.9-0.7,2.6-0.7,4.9c0,1.6,0.1,2.8,0.3,3.5c0.2,0.8,0.5,1.3,0.9,1.7
		c0.4,0.4,0.9,0.6,1.6,0.6C596.3,1131.4,597.3,1129.5,597.3,1125.6z"/>
</g>
<g>
	<path fill="#FFFFFF" d="M655.5,1114.9l0,0.4l-4.1,7.7c-0.9,1.6-1.2,2.9-1.1,4c0.1,1.4,1,2,2.6,1.9c0.6,0,1.1-0.2,1.5-0.6
		c0.5-0.3,0.8-0.7,1-1.2l1.4,1c-0.2,0.7-0.6,1.3-1.2,1.7c-0.7,0.5-1.5,0.7-2.4,0.8c-1.5,0.1-2.6-0.1-3.5-0.7
		c-0.9-0.6-1.4-1.5-1.5-2.7c-0.1-1.1,0.3-2.6,1.3-4.4l2.9-5.7l-5.9,0.5l-0.2-1.9L655.5,1114.9z"/>
	<path fill="#FFFFFF" d="M643.4,1123.4l0.7,0.4l0.6,7.3l-7.5,0.7l-0.2-1.8l5.6-0.5l-0.3-3.7c-0.5,0.4-1.1,0.7-1.9,0.7
		c-1.4,0.1-2.5-0.2-3.3-1c-0.8-0.8-1.3-1.9-1.4-3.5c-0.3-3.8,1.2-5.8,4.6-6.1c1.4-0.1,2.6,0.2,3.6,0.9l-0.6,1.8
		c-1-0.7-1.9-1-2.8-0.9c-1.9,0.2-2.8,1.5-2.6,3.9c0.2,2.3,1.3,3.3,3.2,3.1C641.9,1124.7,642.7,1124.2,643.4,1123.4z"/>
</g>
<g>
	<path fill="#FFFFFF" d="M700.1,1108.1l0.1,0.4l-3.4,8c-0.7,1.7-1,3-0.8,4.1c0.2,1.4,1.1,1.9,2.7,1.7c0.6-0.1,1-0.3,1.5-0.7
		c0.4-0.4,0.7-0.8,0.9-1.3l1.5,0.8c-0.1,0.7-0.5,1.3-1.1,1.8c-0.6,0.5-1.4,0.9-2.4,1c-1.4,0.3-2.6,0.1-3.5-0.4
		c-0.9-0.5-1.5-1.4-1.7-2.6c-0.2-1.1,0.1-2.6,0.9-4.5l2.4-5.9l-5.9,1l-0.3-1.8L700.1,1108.1z"/>
	<path fill="#FFFFFF" d="M690.6,1117.9c0.4,2.2,0.3,4-0.4,5.5c-0.6,1.5-1.7,2.4-3.3,2.7c-1.6,0.3-2.8-0.1-3.8-1.1s-1.7-2.9-2.2-5.7
		c-0.4-2.4-0.4-4.4,0.2-5.9c0.6-1.5,1.7-2.4,3.2-2.7c1.6-0.3,2.9,0.1,3.9,1C689.3,1112.7,690,1114.7,690.6,1117.9z M688.5,1118.1
		c-0.7-4.1-2-6.1-3.8-5.8c-1,0.2-1.7,0.8-2,1.8s-0.3,2.7,0.1,5c0.3,1.6,0.6,2.7,0.9,3.4c0.3,0.7,0.7,1.2,1.2,1.5
		c0.5,0.3,1,0.4,1.7,0.3C688.6,1124,689.2,1121.9,688.5,1118.1z"/>
</g>
<g>
	<path fill="#FFFFFF" d="M739.7,1098.5l3,11.3l2.5-2.7l0.5,1.9c-0.7,0.6-1.3,1.3-2,2.2s-1.2,1.7-1.5,2.4l-0.6,0.2l-4-14.7
		L739.7,1098.5z"/>
	<path fill="#FFFFFF" d="M733.5,1107.9l0.8,0.3l1.9,7.1l-7.3,2l-0.5-1.7l5.4-1.4l-1-3.6c-0.4,0.5-1,0.9-1.7,1.1
		c-1.4,0.4-2.5,0.2-3.4-0.4c-0.9-0.6-1.6-1.7-2-3.2c-1-3.7,0.2-6,3.4-6.8c1.4-0.4,2.6-0.3,3.7,0.2l-0.3,1.9
		c-1.1-0.5-2.1-0.6-2.9-0.4c-1.9,0.5-2.5,1.9-1.9,4.3c0.6,2.2,1.8,3,3.7,2.5C732.3,1109.4,733,1108.8,733.5,1107.9z"/>
</g>
<g>
	<path fill="#FFFFFF" d="M782.6,1084.5l4,11l2.2-2.9l0.7,1.8c-0.6,0.6-1.2,1.4-1.8,2.4c-0.6,1-1,1.8-1.3,2.6l-0.6,0.2l-5.2-14.3
		L782.6,1084.5z"/>
	<path fill="#FFFFFF" d="M779.1,1094.3c0.7,2.1,0.9,3.9,0.6,5.5c-0.4,1.6-1.3,2.7-2.8,3.2c-1.5,0.5-2.8,0.4-4-0.4
		c-1.1-0.8-2.2-2.6-3.2-5.2c-0.8-2.3-1.1-4.3-0.8-5.9c0.3-1.6,1.2-2.7,2.7-3.2c1.5-0.6,2.9-0.4,4,0.4
		C776.9,1089.4,778,1091.3,779.1,1094.3z M777.1,1094.9c-1.4-4-3-5.6-4.7-5c-1,0.4-1.5,1.1-1.7,2.1s0.2,2.7,1,4.9
		c0.6,1.5,1,2.6,1.5,3.2c0.4,0.6,0.9,1.1,1.4,1.3c0.5,0.2,1.1,0.2,1.7,0C778.2,1100.7,778.4,1098.5,777.1,1094.9z"/>
</g>
<g>
	<path fill="#FFFFFF" d="M825.3,1075.6l0.8,0.1l3.1,6.7l-6.9,3.2l-0.7-1.6l5.1-2.4l-1.6-3.3c-0.3,0.6-0.8,1-1.5,1.3
		c-1.3,0.6-2.4,0.7-3.5,0.2c-1-0.5-1.9-1.4-2.5-2.8c-1.6-3.5-0.9-5.9,2.2-7.3c1.3-0.6,2.5-0.7,3.7-0.4l0,1.9c-1.2-0.3-2.2-0.3-3,0.1
		c-1.8,0.8-2.1,2.3-1.1,4.5c1,2.1,2.3,2.7,4.1,1.9C824.4,1077.4,825,1076.7,825.3,1075.6z"/>
</g>
<g>
	<path fill="#FFFFFF" d="M868,1044.3l-0.1,1.9c-1-0.3-1.9-0.2-2.8,0.3c-1.7,1-2,2.3-1.1,3.9c0.4,0.7,1,1.2,1.8,1.4
		c0.8,0.2,1.5,0,2.3-0.4l0.1-0.1l0.8,1.5l-0.1,0c-1.5,0.9-1.9,2-1.1,3.3c0.8,1.4,1.9,1.7,3.4,0.9c0.8-0.4,1.2-1.1,1.4-1.9l1.5,0.8
		c-0.1,1-0.9,1.9-2.2,2.7c-1.2,0.7-2.3,0.9-3.3,0.7c-1.1-0.2-1.9-0.8-2.4-1.7c-0.4-0.7-0.6-1.5-0.5-2.3c0.1-0.8,0.3-1.4,0.8-2
		c-0.9,0.2-1.7,0.1-2.5-0.2c-0.8-0.3-1.4-0.9-1.9-1.8c-0.7-1.2-0.9-2.4-0.5-3.5c0.4-1.1,1.3-2.1,2.7-2.9c0.6-0.3,1.2-0.6,1.9-0.7
		C866.9,1044.2,867.5,1044.2,868,1044.3z"/>
	<path fill="#FFFFFF" d="M862.2,1055.7c1.1,1.9,1.6,3.7,1.5,5.3c-0.1,1.6-0.8,2.9-2.2,3.7c-1.4,0.8-2.7,0.9-4,0.3
		c-1.3-0.6-2.6-2.1-4-4.6c-1.2-2.1-1.8-4-1.8-5.7c0-1.6,0.7-2.9,2.1-3.7c1.4-0.8,2.7-0.9,4-0.4
		C859.1,1051.2,860.6,1052.9,862.2,1055.7z M860.3,1056.6c-2.1-3.6-3.9-5-5.5-4.1c-0.9,0.5-1.3,1.3-1.3,2.3c0,1.1,0.7,2.6,1.8,4.6
		c0.8,1.4,1.5,2.4,2,2.9c0.5,0.6,1.1,0.9,1.6,1c0.6,0.1,1.1,0,1.7-0.3C862.4,1062.1,862.3,1059.9,860.3,1056.6z"/>
</g>
<g>
	<path fill="#FFFFFF" d="M905.4,1018.1l0.2,0.3l0.3,8.7c0.1,1.8,0.4,3.2,1,4c0.8,1.2,1.9,1.3,3.2,0.4c0.5-0.3,0.8-0.7,1-1.3
		c0.2-0.5,0.3-1,0.2-1.5l1.7,0.1c0.2,0.7,0.1,1.4-0.2,2.1c-0.3,0.7-0.9,1.4-1.7,1.9c-1.2,0.8-2.3,1.2-3.4,1.1
		c-1.1-0.1-1.9-0.6-2.7-1.6c-0.7-0.9-1-2.4-1.1-4.5l-0.3-6.4l-4.9,3.4l-1.1-1.5L905.4,1018.1z"/>
	<path fill="#FFFFFF" d="M899.1,1031.6l0.9,0l4.2,6l-6.2,4.3l-1-1.4l4.6-3.2l-2.1-3c-0.2,0.6-0.6,1.1-1.3,1.6
		c-1.2,0.8-2.3,1.1-3.4,0.8c-1.1-0.3-2.1-1-3-2.3c-2.2-3.1-1.9-5.7,0.9-7.6c1.2-0.8,2.4-1.2,3.6-1.1l0.3,1.9
		c-1.2-0.1-2.2,0.1-2.9,0.6c-1.6,1.1-1.7,2.7-0.3,4.7c1.3,1.9,2.7,2.2,4.3,1.1C898.5,1033.5,899,1032.7,899.1,1031.6z"/>
</g>
<g>
	<g>
		<path fill="#FFFFFF" d="M940.6,989.9l0.3,0.3l1,8.6c0.2,1.8,0.7,3.1,1.4,3.9c0.9,1.1,2,1.1,3.2,0.1c0.4-0.4,0.7-0.8,0.9-1.4
			c0.2-0.5,0.2-1.1,0.1-1.5l1.7,0c0.3,0.7,0.2,1.4,0,2.1c-0.3,0.8-0.8,1.4-1.5,2.1c-1.1,0.9-2.2,1.4-3.3,1.4c-1.1,0-2-0.5-2.8-1.4
			c-0.7-0.9-1.2-2.3-1.5-4.4l-0.9-6.3l-4.6,3.8l-1.2-1.4L940.6,989.9z"/>
		<path fill="#FFFFFF" d="M937.3,1003.2c1.4,1.7,2.2,3.3,2.4,4.9c0.2,1.6-0.3,3-1.5,4c-1.2,1-2.5,1.4-3.9,1
			c-1.3-0.4-2.9-1.6-4.8-3.8c-1.6-1.9-2.5-3.6-2.8-5.3c-0.3-1.6,0.2-3,1.5-4s2.5-1.4,3.9-1C933.5,999.4,935.2,1000.8,937.3,1003.2z
			 M935.6,1004.4c-2.7-3.2-4.8-4.3-6.1-3.1c-0.8,0.7-1.1,1.5-0.8,2.5c0.2,1,1.1,2.4,2.6,4.2c1,1.2,1.9,2.1,2.5,2.5
			c0.6,0.5,1.2,0.7,1.8,0.7s1.1-0.2,1.6-0.6C938.6,1009.5,938.1,1007.4,935.6,1004.4z"/>
	</g>
</g>
<g>
	<path fill="#FFFFFF" d="M970.2,961.9l8.2,8.2l0.8-3.6l1.4,1.4c-0.3,0.8-0.5,1.8-0.6,2.9c-0.1,1.1-0.2,2.1-0.1,2.8l-0.4,0.4
		l-10.8-10.8L970.2,961.9z"/>
	<path fill="#FFFFFF" d="M969.5,973.1l0.8-0.2l5.2,5.2l-5.3,5.3l-1.2-1.2l4-4l-2.6-2.6c-0.1,0.6-0.4,1.2-1,1.8c-1,1-2.1,1.5-3.2,1.4
		c-1.1-0.1-2.2-0.7-3.3-1.8c-2.7-2.7-2.8-5.2-0.4-7.6c1-1,2.1-1.6,3.3-1.7l0.7,1.8c-1.2,0.1-2.1,0.5-2.7,1.1
		c-1.4,1.4-1.2,2.9,0.5,4.7c1.6,1.6,3.1,1.7,4.4,0.4C969.2,975,969.5,974.2,969.5,973.1z"/>
</g>
<g>
	<path fill="#FFFFFF" d="M1000.3,928.3l8.9,7.5l0.5-3.6l1.5,1.2c-0.2,0.9-0.3,1.8-0.4,3c0,1.1,0,2.1,0.2,2.8l-0.4,0.5l-11.7-9.8
		L1000.3,928.3z"/>
	<path fill="#FFFFFF" d="M1002.2,938.5c1.7,1.4,2.8,2.9,3.2,4.5c0.5,1.6,0.2,3-0.8,4.2c-1,1.2-2.2,1.8-3.6,1.6
		c-1.4-0.1-3.2-1.1-5.4-3c-1.9-1.6-3.1-3.1-3.6-4.7c-0.5-1.5-0.3-2.9,0.7-4.2c1-1.2,2.3-1.8,3.7-1.7
		C997.8,935.4,999.7,936.5,1002.2,938.5z M1000.7,940c-3.2-2.7-5.4-3.4-6.6-2c-0.7,0.8-0.8,1.7-0.4,2.6c0.4,1,1.5,2.2,3.3,3.7
		c1.2,1,2.2,1.7,2.9,2.1c0.7,0.3,1.3,0.5,1.9,0.4c0.6-0.1,1-0.3,1.5-0.8C1004.5,944.5,1003.7,942.5,1000.7,940z"/>
</g>
<g>
	<path fill="#FFFFFF" d="M1031.6,899.7l0.8-0.3l6,4.2l-4.3,6.2l-1.4-1l3.2-4.6l-3-2.1c0,0.6-0.2,1.3-0.7,1.9
		c-0.8,1.2-1.8,1.8-2.9,1.9c-1.1,0.1-2.3-0.3-3.6-1.2c-3.1-2.2-3.7-4.7-1.8-7.5c0.8-1.2,1.8-1.9,3-2.2l1,1.6c-1.2,0.3-2,0.9-2.5,1.6
		c-1.1,1.6-0.7,3.1,1.3,4.5c1.9,1.3,3.3,1.2,4.4-0.4C1031.7,901.7,1031.9,900.8,1031.6,899.7z"/>
</g>
<g>
	<path fill="#FFFFFF" d="M1054.1,850.8l0.9,1.7c-1,0.2-1.7,0.8-2.3,1.7c-1,1.7-0.6,3,1,3.9c0.7,0.4,1.5,0.5,2.2,0.3
		c0.7-0.2,1.3-0.7,1.8-1.5l0.1-0.1l1.5,0.8l0,0.1c-0.9,1.5-0.6,2.7,0.7,3.4c1.4,0.8,2.5,0.5,3.3-0.9c0.5-0.8,0.5-1.5,0.3-2.3
		l1.7-0.1c0.4,1,0.2,2.1-0.5,3.4c-0.7,1.2-1.5,1.9-2.5,2.3c-1,0.4-2,0.3-3-0.3c-0.7-0.4-1.3-1-1.6-1.7c-0.3-0.7-0.4-1.4-0.3-2.1
		c-0.7,0.6-1.4,1-2.3,1.1s-1.7-0.1-2.5-0.6c-1.2-0.7-1.9-1.6-2.2-2.8c-0.2-1.2,0.1-2.4,0.9-3.8c0.3-0.6,0.8-1.1,1.3-1.5
		C1053.1,851.3,1053.6,851,1054.1,850.8z"/>
	<path fill="#FFFFFF" d="M1054.8,863.6c1.9,1.1,3.2,2.4,4,3.8c0.8,1.5,0.7,2.9-0.1,4.3c-0.8,1.4-1.9,2.1-3.3,2.2
		c-1.4,0.1-3.3-0.5-5.8-2c-2.1-1.2-3.6-2.6-4.4-4c-0.8-1.4-0.8-2.8,0-4.2c0.8-1.4,1.9-2.2,3.3-2.3S1052,861.9,1054.8,863.6z
		 M1053.6,865.3c-3.6-2.1-5.9-2.4-6.8-0.8c-0.5,0.9-0.5,1.8,0.1,2.7c0.6,0.9,1.9,1.9,3.9,3.1c1.4,0.8,2.5,1.3,3.2,1.5
		c0.7,0.2,1.4,0.2,1.9,0.1s1-0.5,1.3-1.1C1058.2,869,1057,867.2,1053.6,865.3z"/>
</g>
<g>
	<path fill="#FFFFFF" d="M1073.4,809.5l0.4,0.2l4.6,7.4c1,1.5,1.9,2.5,2.9,3c1.3,0.6,2.2,0.2,2.9-1.3c0.2-0.5,0.3-1,0.3-1.6
		c-0.1-0.6-0.2-1-0.6-1.4l1.6-0.7c0.5,0.5,0.8,1.1,0.9,1.9c0.1,0.8-0.1,1.6-0.5,2.5c-0.6,1.3-1.4,2.2-2.4,2.7c-1,0.5-2,0.4-3.1-0.1
		c-1-0.5-2.1-1.6-3.2-3.3l-3.5-5.4l-2.5,5.4l-1.7-0.8L1073.4,809.5z"/>
	<path fill="#FFFFFF" d="M1074.7,824.2l0.7-0.4l6.7,3.1l-3.2,6.9l-1.6-0.7l2.4-5.1l-3.3-1.6c0.1,0.6,0,1.3-0.3,2
		c-0.6,1.3-1.4,2.1-2.5,2.4c-1.1,0.3-2.3,0.1-3.7-0.5c-3.5-1.6-4.5-4-3-7c0.6-1.3,1.5-2.2,2.6-2.7l1.2,1.5c-1.1,0.5-1.8,1.2-2.2,2
		c-0.8,1.8-0.1,3.2,2.1,4.2c2.1,1,3.5,0.6,4.3-1.2C1075.1,826.2,1075.1,825.2,1074.7,824.2z"/>
</g>
<g>
	<path fill="#FFFFFF" d="M1089.9,767.4l0.4,0.1l5.2,7c1.1,1.5,2.1,2.4,3.1,2.7c1.3,0.5,2.2,0,2.8-1.5c0.2-0.5,0.2-1.1,0.1-1.6
		s-0.3-1-0.7-1.4l1.5-0.9c0.6,0.5,0.9,1.1,1,1.9c0.1,0.8,0,1.6-0.3,2.6c-0.5,1.4-1.2,2.3-2.1,2.9c-0.9,0.5-2,0.6-3.1,0.2
		c-1.1-0.4-2.2-1.4-3.5-3l-3.9-5.1l-2,5.6l-1.8-0.6L1089.9,767.4z"/>
	<path fill="#FFFFFF" d="M1093.6,780.6c2.1,0.7,3.6,1.8,4.6,3.1c1,1.3,1.2,2.7,0.7,4.2c-0.5,1.5-1.5,2.4-2.8,2.8
		c-1.4,0.4-3.4,0-6.1-0.9c-2.3-0.8-4-1.9-5-3.2c-1-1.3-1.3-2.7-0.7-4.2c0.6-1.5,1.5-2.5,2.9-2.9
		C1088.4,779.1,1090.6,779.5,1093.6,780.6z M1092.8,782.5c-4-1.4-6.2-1.3-6.9,0.4c-0.4,1-0.2,1.8,0.5,2.6c0.7,0.8,2.2,1.6,4.4,2.4
		c1.5,0.6,2.7,0.9,3.4,1c0.8,0.1,1.4,0,1.9-0.3c0.5-0.3,0.9-0.7,1.1-1.3C1097.9,785.4,1096.4,783.8,1092.8,782.5z"/>
</g>
<g>
	<path fill="#FFFFFF" d="M1101.4,728.4l11.3,3l-1.1-3.5l1.9,0.5c0.2,0.9,0.5,1.8,0.9,2.8c0.4,1,0.9,1.9,1.4,2.5l-0.2,0.6l-14.7-4
		L1101.4,728.4z"/>
	<path fill="#FFFFFF" d="M1106.4,738.4l0.7-0.6l7.1,1.9l-2,7.3l-1.7-0.5l1.4-5.4l-3.6-1c0.2,0.6,0.3,1.3,0,2
		c-0.4,1.4-1.1,2.3-2.1,2.8c-1,0.5-2.3,0.5-3.8,0.1c-3.7-1-5.1-3.1-4.2-6.4c0.4-1.4,1.1-2.4,2.1-3.1l1.5,1.2c-1,0.7-1.6,1.5-1.8,2.3
		c-0.5,1.9,0.4,3.1,2.8,3.8c2.2,0.6,3.5,0,4-1.9C1107.2,740.2,1107,739.3,1106.4,738.4z"/>
</g>
<g>
	<path fill="#FFFFFF" d="M1110.7,684.2l11.5,2l-1.4-3.4l1.9,0.3c0.3,0.8,0.6,1.8,1.2,2.7c0.5,1,1.1,1.8,1.6,2.4l-0.1,0.6l-15-2.7
		L1110.7,684.2z"/>
	<path fill="#FFFFFF" d="M1117.5,692.1c2.2,0.4,3.8,1.1,5,2.2c1.2,1.1,1.7,2.5,1.4,4c-0.3,1.6-1,2.6-2.3,3.2
		c-1.3,0.6-3.3,0.6-6.1,0.1c-2.4-0.4-4.3-1.2-5.5-2.2c-1.2-1.1-1.7-2.4-1.5-4c0.3-1.6,1.1-2.7,2.3-3.3
		C1112.1,691.6,1114.3,691.6,1117.5,692.1z M1116.9,694.1c-4.1-0.7-6.4-0.2-6.7,1.6c-0.2,1,0.1,1.8,1,2.5c0.8,0.6,2.4,1.2,4.7,1.6
		c1.6,0.3,2.8,0.4,3.5,0.3c0.8-0.1,1.4-0.2,1.8-0.6c0.5-0.3,0.7-0.8,0.8-1.5C1122.5,696.1,1120.7,694.8,1116.9,694.1z"/>
</g>
<g>
	<path fill="#FFFFFF" d="M1123.7,644l0.5-0.7l7.3,0.6l-0.7,7.5l-1.8-0.2l0.5-5.6l-3.7-0.3c0.3,0.5,0.5,1.2,0.4,2
		c-0.1,1.4-0.6,2.4-1.5,3.1s-2.1,0.9-3.7,0.8c-3.8-0.3-5.5-2.2-5.3-5.6c0.1-1.4,0.6-2.5,1.5-3.4l1.7,0.9c-0.8,0.9-1.3,1.7-1.4,2.6
		c-0.2,1.9,1,3,3.4,3.2c2.3,0.2,3.5-0.7,3.6-2.6C1124.7,645.6,1124.4,644.8,1123.7,644z"/>
</g>
<g>
	<path fill="#FFFFFF" d="M1118.6,590.2l1.6,1c-0.7,0.7-1.1,1.5-1.1,2.6c0,1.9,0.9,2.9,2.8,2.9c0.9,0,1.6-0.3,2.1-0.8
		c0.5-0.6,0.8-1.3,0.8-2.2v-0.2h1.7v0.1c0,1.8,0.8,2.6,2.3,2.6c1.6,0,2.4-0.8,2.4-2.5c0-0.9-0.3-1.6-0.9-2.1l1.4-0.9
		c0.8,0.6,1.3,1.7,1.3,3.2c0,1.3-0.4,2.4-1.1,3.2c-0.7,0.8-1.6,1.3-2.7,1.3c-0.8,0-1.6-0.2-2.2-0.7c-0.7-0.5-1.1-1-1.3-1.6
		c-0.3,0.9-0.8,1.6-1.4,2.1s-1.5,0.8-2.5,0.8c-1.4,0-2.5-0.4-3.3-1.3c-0.8-0.9-1.2-2.1-1.2-3.8c0-0.7,0.1-1.3,0.4-2
		C1117.9,591.1,1118.2,590.6,1118.6,590.2z"/>
	<path fill="#FFFFFF" d="M1125.6,600.9c2.2,0,4,0.4,5.3,1.3c1.4,0.9,2.1,2.1,2.1,3.7c0,1.6-0.6,2.8-1.7,3.6c-1.1,0.8-3.2,1.2-6,1.2
		c-2.5,0-4.4-0.4-5.8-1.3s-2.1-2.1-2.1-3.7c0-1.6,0.6-2.8,1.7-3.7C1120.1,601.3,1122.3,600.9,1125.6,600.9z M1125.4,602.9
		c-4.2,0-6.3,0.9-6.3,2.7c0,1,0.5,1.8,1.4,2.3s2.6,0.7,4.9,0.7c1.6,0,2.8-0.1,3.5-0.3s1.3-0.5,1.7-0.9s0.6-0.9,0.6-1.6
		C1131.2,603.9,1129.3,602.9,1125.4,602.9z"/>
</g>
<g>
	<path fill="#FFFFFF" d="M1114.6,544.7l0.4,0l7.7,4.1c1.6,0.9,2.9,1.2,4,1.1c1.4-0.1,2-1,1.9-2.6c0-0.6-0.2-1.1-0.6-1.5
		c-0.3-0.5-0.7-0.8-1.2-1l1-1.4c0.7,0.2,1.3,0.6,1.7,1.2c0.5,0.7,0.7,1.5,0.8,2.4c0.1,1.5-0.1,2.6-0.7,3.5c-0.6,0.9-1.5,1.4-2.7,1.5
		c-1.1,0.1-2.6-0.3-4.4-1.3l-5.7-2.9l0.5,5.9l-1.9,0.2L1114.6,544.7z"/>
	<path fill="#FFFFFF" d="M1123.1,556.8l0.4-0.7l7.3-0.6l0.7,7.5l-1.8,0.2l-0.5-5.6l-3.7,0.3c0.4,0.5,0.7,1.1,0.7,1.9
		c0.1,1.4-0.2,2.5-1,3.3c-0.8,0.8-1.9,1.3-3.5,1.4c-3.8,0.3-5.8-1.2-6.1-4.6c-0.1-1.4,0.2-2.6,0.9-3.6l1.8,0.6c-0.7,1-1,1.9-0.9,2.8
		c0.2,1.9,1.5,2.8,3.9,2.6c2.3-0.2,3.3-1.3,3.1-3.2C1124.4,558.3,1124,557.5,1123.1,556.8z"/>
</g>
<g>
	<path fill="#FFFFFF" d="M1107.8,500.1l0.4-0.1l8,3.4c1.7,0.7,3,1,4.1,0.8c1.4-0.2,1.9-1.1,1.7-2.7c-0.1-0.6-0.3-1-0.7-1.5
		c-0.4-0.4-0.8-0.7-1.3-0.9l0.9-1.5c0.7,0.1,1.3,0.5,1.8,1.1c0.5,0.6,0.9,1.4,1,2.4c0.3,1.4,0.1,2.6-0.4,3.5s-1.4,1.5-2.6,1.7
		c-1.1,0.2-2.6-0.1-4.5-0.9l-5.9-2.4l1,5.9l-1.8,0.3L1107.8,500.1z"/>
	<path fill="#FFFFFF" d="M1117.7,509.6c2.2-0.4,4-0.3,5.5,0.4s2.4,1.7,2.7,3.3c0.3,1.6-0.1,2.8-1.1,3.8s-2.9,1.7-5.7,2.2
		c-2.4,0.4-4.4,0.4-5.9-0.2c-1.5-0.6-2.4-1.7-2.7-3.2c-0.3-1.6,0.1-2.9,1-3.9C1112.4,510.9,1114.5,510.1,1117.7,509.6z
		 M1117.9,511.7c-4.1,0.7-6.1,2-5.8,3.8c0.2,1,0.8,1.7,1.8,2c1,0.3,2.7,0.3,5-0.1c1.6-0.3,2.7-0.6,3.4-0.9c0.7-0.3,1.2-0.7,1.5-1.2
		c0.3-0.5,0.4-1,0.3-1.7C1123.8,511.6,1121.7,511,1117.9,511.7z"/>
</g>
<g>
	<path fill="#FFFFFF" d="M1098.3,460.5l11.3-3l-2.7-2.5l1.9-0.5c0.6,0.7,1.3,1.3,2.2,2c0.9,0.7,1.7,1.2,2.4,1.5l0.2,0.6l-14.7,4
		L1098.3,460.5z"/>
	<path fill="#FFFFFF" d="M1107.6,466.7l0.3-0.8l7.1-1.9l2,7.3l-1.7,0.5l-1.4-5.4l-3.6,1c0.5,0.4,0.9,1,1.1,1.7
		c0.4,1.4,0.2,2.5-0.4,3.4c-0.6,0.9-1.7,1.6-3.2,2c-3.7,1-6-0.2-6.8-3.4c-0.4-1.4-0.3-2.6,0.2-3.7l1.9,0.3c-0.5,1.1-0.6,2.1-0.4,2.9
		c0.5,1.9,1.9,2.5,4.3,1.9c2.2-0.6,3-1.8,2.5-3.7C1109.2,467.9,1108.6,467.2,1107.6,466.7z"/>
</g>
<g>
	<path fill="#FFFFFF" d="M1084.2,417.6l11-4l-2.9-2.2l1.8-0.7c0.6,0.6,1.4,1.2,2.4,1.8c1,0.6,1.8,1,2.6,1.3l0.2,0.6l-14.3,5.2
		L1084.2,417.6z"/>
	<path fill="#FFFFFF" d="M1094.1,421.1c2.1-0.7,3.9-0.9,5.5-0.6c1.6,0.4,2.7,1.3,3.2,2.8c0.5,1.5,0.4,2.8-0.4,4
		c-0.8,1.1-2.6,2.2-5.2,3.2c-2.3,0.8-4.3,1.1-5.9,0.8c-1.6-0.3-2.7-1.2-3.2-2.7c-0.6-1.5-0.4-2.9,0.4-4
		C1089.1,423.3,1091,422.2,1094.1,421.1z M1094.6,423.1c-4,1.4-5.6,3-5,4.7c0.4,1,1.1,1.5,2.1,1.7c1,0.1,2.7-0.2,4.9-1
		c1.5-0.6,2.6-1,3.2-1.5c0.6-0.4,1.1-0.9,1.3-1.4c0.2-0.5,0.2-1.1,0-1.7C1100.4,422,1098.3,421.8,1094.6,423.1z"/>
</g>
<g>
	<path fill="#FFFFFF" d="M1076.5,374.9l0.1-0.8l6.7-3.1l3.2,6.9l-1.6,0.7l-2.4-5.1l-3.3,1.6c0.6,0.3,1,0.8,1.3,1.5
		c0.6,1.3,0.7,2.4,0.2,3.5c-0.5,1-1.4,1.9-2.8,2.5c-3.5,1.6-5.9,0.9-7.3-2.2c-0.6-1.3-0.7-2.5-0.4-3.7l1.9,0c-0.3,1.2-0.3,2.2,0.1,3
		c0.8,1.8,2.3,2.1,4.5,1.1c2.1-1,2.7-2.3,1.9-4.1C1078.2,375.8,1077.5,375.2,1076.5,374.9z"/>
</g>
<g>
	<path fill="#FFFFFF" d="M1044.1,332.2l1.9,0.1c-0.3,1-0.2,1.9,0.3,2.8c1,1.7,2.3,2,3.9,1.1c0.7-0.4,1.2-1,1.4-1.8
		c0.2-0.8,0-1.5-0.4-2.3l-0.1-0.1l1.5-0.8l0,0.1c0.9,1.5,2,1.9,3.3,1.1c1.4-0.8,1.7-1.9,0.9-3.4c-0.5-0.8-1.1-1.2-1.9-1.4l0.8-1.5
		c1,0.1,1.9,0.9,2.7,2.2c0.7,1.2,0.9,2.3,0.7,3.3c-0.2,1.1-0.8,1.9-1.7,2.4c-0.7,0.4-1.5,0.6-2.3,0.5c-0.8-0.1-1.4-0.3-2-0.8
		c0.2,0.9,0.1,1.7-0.2,2.5c-0.3,0.8-0.9,1.4-1.8,1.9c-1.2,0.7-2.4,0.9-3.5,0.5c-1.1-0.4-2.1-1.3-2.9-2.7c-0.3-0.6-0.6-1.2-0.7-1.9
		S1044,332.7,1044.1,332.2z"/>
	<path fill="#FFFFFF" d="M1055.5,338c1.9-1.1,3.7-1.6,5.3-1.5c1.6,0.1,2.9,0.8,3.7,2.2c0.8,1.4,0.9,2.7,0.3,4
		c-0.6,1.3-2.1,2.6-4.6,4c-2.1,1.2-4,1.8-5.7,1.8c-1.6,0-2.9-0.7-3.7-2.1c-0.8-1.4-0.9-2.7-0.4-4
		C1051,341.1,1052.7,339.6,1055.5,338z M1056.3,339.9c-3.6,2.1-5,3.9-4.1,5.5c0.5,0.9,1.3,1.3,2.3,1.3c1.1,0,2.6-0.7,4.6-1.8
		c1.4-0.8,2.4-1.5,2.9-2c0.6-0.5,0.9-1.1,1-1.6c0.1-0.6,0-1.1-0.3-1.7C1061.9,337.8,1059.7,337.9,1056.3,339.9z"/>
</g>
<g>
	<path fill="#FFFFFF" d="M1017.9,294.8l0.3-0.2l8.7-0.3c1.8-0.1,3.2-0.4,4-1c1.2-0.8,1.3-1.9,0.4-3.2c-0.3-0.5-0.7-0.8-1.3-1
		c-0.5-0.2-1-0.3-1.5-0.2l0.1-1.7c0.7-0.2,1.4-0.1,2.1,0.2c0.7,0.3,1.4,0.9,1.9,1.7c0.8,1.2,1.2,2.3,1.1,3.4
		c-0.1,1.1-0.6,1.9-1.6,2.7c-0.9,0.7-2.4,1-4.5,1.1l-6.4,0.3l3.4,4.9l-1.5,1.1L1017.9,294.8z"/>
	<path fill="#FFFFFF" d="M1031.3,301.1l0-0.9l6-4.2l4.3,6.2l-1.4,1l-3.2-4.6l-3,2.1c0.6,0.2,1.1,0.6,1.6,1.3
		c0.8,1.2,1.1,2.3,0.8,3.4c-0.3,1.1-1,2.1-2.3,3c-3.1,2.2-5.7,1.9-7.6-0.9c-0.8-1.2-1.2-2.4-1.1-3.6l1.9-0.3
		c-0.1,1.2,0.1,2.2,0.6,2.9c1.1,1.6,2.7,1.7,4.7,0.3c1.9-1.3,2.2-2.7,1.1-4.3C1033.2,301.7,1032.4,301.2,1031.3,301.1z"/>
</g>
<g>
	<path fill="#FFFFFF" d="M989.7,259.6l0.3-0.3l8.6-1c1.8-0.2,3.1-0.7,3.9-1.4c1.1-0.9,1.1-2,0.1-3.2c-0.4-0.4-0.8-0.7-1.4-0.9
		c-0.5-0.2-1.1-0.2-1.5-0.1l0-1.7c0.7-0.3,1.4-0.2,2.1,0c0.7,0.3,1.4,0.8,2.1,1.5c0.9,1.1,1.4,2.2,1.4,3.3c0,1.1-0.5,2-1.4,2.8
		c-0.9,0.7-2.3,1.2-4.4,1.5l-6.3,0.9l3.8,4.6l-1.4,1.2L989.7,259.6z"/>
	<path fill="#FFFFFF" d="M1003,262.9c1.7-1.4,3.3-2.2,4.9-2.4c1.6-0.2,3,0.3,4,1.5c1,1.2,1.4,2.5,1,3.9c-0.4,1.4-1.6,2.9-3.8,4.8
		c-1.9,1.6-3.6,2.5-5.3,2.8c-1.6,0.3-3-0.2-4-1.4c-1-1.2-1.4-2.5-1-3.9C999.1,266.7,1000.5,265,1003,262.9z M1004.2,264.6
		c-3.2,2.7-4.3,4.8-3.1,6.1c0.7,0.8,1.5,1.1,2.5,0.8c1-0.2,2.4-1.1,4.2-2.6c1.2-1,2.1-1.9,2.5-2.5c0.5-0.6,0.7-1.2,0.7-1.8
		s-0.2-1.1-0.6-1.6C1009.3,261.6,1007.2,262.1,1004.2,264.6z"/>
</g>
<g>
	<path fill="#FFFFFF" d="M961.7,230l8.2-8.2l-3.6-0.8l1.4-1.4c0.8,0.3,1.8,0.5,2.9,0.6c1.1,0.1,2.1,0.2,2.8,0.1l0.4,0.4l-10.8,10.8
		L961.7,230z"/>
	<path fill="#FFFFFF" d="M972.8,230.7l-0.2-0.8l5.2-5.2l5.3,5.3l-1.2,1.2l-4-4l-2.6,2.6c0.6,0.1,1.2,0.4,1.8,1c1,1,1.5,2.1,1.4,3.2
		c-0.1,1.1-0.7,2.2-1.8,3.3c-2.7,2.7-5.2,2.8-7.6,0.4c-1-1-1.6-2.1-1.7-3.3l1.8-0.7c0.1,1.2,0.5,2.1,1.1,2.7
		c1.4,1.4,2.9,1.2,4.7-0.5c1.6-1.6,1.7-3.1,0.4-4.4C974.8,231,973.9,230.7,972.8,230.7z"/>
</g>
<g>
	<path fill="#FFFFFF" d="M928,199.9l7.5-8.9l-3.6-0.5l1.2-1.5c0.9,0.2,1.8,0.3,3,0.4c1.1,0,2.1,0,2.8-0.2l0.5,0.4l-9.8,11.7
		L928,199.9z"/>
	<path fill="#FFFFFF" d="M938.3,198c1.4-1.7,2.9-2.8,4.5-3.2c1.6-0.5,3-0.2,4.2,0.8c1.2,1,1.8,2.2,1.6,3.6c-0.1,1.4-1.1,3.2-3,5.4
		c-1.6,1.9-3.2,3.1-4.7,3.6c-1.6,0.5-2.9,0.3-4.2-0.7c-1.2-1-1.8-2.3-1.7-3.7C935.1,202.4,936.2,200.5,938.3,198z M939.8,199.5
		c-2.7,3.2-3.4,5.4-2,6.6c0.8,0.7,1.7,0.8,2.6,0.4c1-0.4,2.2-1.5,3.7-3.3c1-1.2,1.7-2.2,2.1-2.9c0.3-0.7,0.5-1.3,0.4-1.9
		c-0.1-0.6-0.3-1-0.8-1.5C944.3,195.7,942.3,196.5,939.8,199.5z"/>
</g>
<g>
	<path fill="#FFFFFF" d="M899.5,168.6l-0.3-0.8l4.2-6l6.2,4.3l-1,1.4l-4.6-3.2l-2.1,3c0.6,0,1.3,0.2,1.9,0.7
		c1.2,0.8,1.8,1.8,1.9,2.9c0.1,1.1-0.3,2.3-1.2,3.6c-2.2,3.1-4.7,3.7-7.5,1.8c-1.2-0.8-1.9-1.8-2.2-3l1.6-1c0.3,1.2,0.9,2,1.6,2.5
		c1.6,1.1,3.1,0.7,4.5-1.3c1.3-1.9,1.2-3.3-0.4-4.4C901.5,168.5,900.5,168.3,899.5,168.6z"/>
</g>
<g>
	<path fill="#FFFFFF" d="M850.6,146.1l1.7-0.9c0.2,1,0.8,1.7,1.7,2.3c1.7,1,3,0.6,3.9-1c0.4-0.7,0.5-1.5,0.3-2.2
		c-0.2-0.7-0.7-1.3-1.5-1.8l-0.1-0.1l0.8-1.5l0.1,0c1.5,0.9,2.7,0.6,3.4-0.7c0.8-1.4,0.5-2.5-0.9-3.3c-0.8-0.4-1.5-0.5-2.3-0.3
		l-0.1-1.7c1-0.4,2.1-0.2,3.4,0.5c1.2,0.7,1.9,1.5,2.3,2.5s0.3,2-0.3,3c-0.4,0.7-1,1.3-1.7,1.6c-0.7,0.3-1.4,0.4-2.1,0.3
		c0.6,0.7,1,1.4,1.1,2.3c0.1,0.8-0.1,1.7-0.6,2.5c-0.7,1.2-1.6,1.9-2.8,2.2c-1.2,0.2-2.4-0.1-3.8-0.9c-0.6-0.3-1.1-0.8-1.5-1.3
		C851,147.1,850.7,146.6,850.6,146.1z"/>
	<path fill="#FFFFFF" d="M863.3,145.4c1.1-1.9,2.4-3.2,3.8-4c1.5-0.7,2.9-0.7,4.3,0.1c1.4,0.8,2.1,1.9,2.2,3.3
		c0.1,1.4-0.5,3.3-2,5.8c-1.2,2.1-2.6,3.6-4,4.4c-1.4,0.8-2.8,0.8-4.2,0c-1.4-0.8-2.2-1.9-2.3-3.3
		C861,150.3,861.7,148.2,863.3,145.4z M865,146.6c-2.1,3.6-2.4,5.9-0.8,6.8c0.9,0.5,1.8,0.5,2.7-0.1c0.9-0.6,1.9-1.9,3.1-3.9
		c0.8-1.4,1.3-2.5,1.5-3.2c0.2-0.7,0.2-1.4,0.1-1.9c-0.2-0.5-0.5-1-1.1-1.3C868.8,142,867,143.2,865,146.6z"/>
</g>
<g>
	<path fill="#FFFFFF" d="M809.2,126.8l0.2-0.4l7.4-4.6c1.5-1,2.5-1.9,3-2.9c0.6-1.3,0.2-2.2-1.3-2.9c-0.5-0.2-1-0.3-1.6-0.3
		c-0.6,0.1-1.1,0.2-1.4,0.6l-0.7-1.6c0.5-0.5,1.1-0.8,1.9-0.9c0.8-0.1,1.6,0.1,2.5,0.5c1.3,0.6,2.2,1.4,2.7,2.4c0.5,1,0.4,2-0.1,3.1
		c-0.5,1-1.6,2.1-3.3,3.2l-5.4,3.5l5.4,2.5l-0.8,1.7L809.2,126.8z"/>
	<path fill="#FFFFFF" d="M824,125.5l-0.4-0.7l3.1-6.7l6.9,3.2l-0.7,1.6l-5.1-2.4l-1.6,3.3c0.6-0.1,1.3,0,2,0.3
		c1.3,0.6,2.1,1.4,2.4,2.5c0.3,1.1,0.1,2.3-0.5,3.7c-1.6,3.5-4,4.5-7,3c-1.3-0.6-2.2-1.5-2.7-2.6l1.5-1.2c0.5,1.1,1.2,1.8,2,2.2
		c1.8,0.8,3.2,0.1,4.2-2.1c1-2.1,0.6-3.5-1.2-4.3C825.9,125.1,825,125.1,824,125.5z"/>
</g>
<g>
	<path fill="#FFFFFF" d="M767.2,110.3l0.1-0.4l7-5.2c1.5-1.1,2.4-2.1,2.7-3.1c0.5-1.3,0-2.3-1.5-2.8c-0.5-0.2-1.1-0.2-1.6-0.1
		s-1,0.3-1.4,0.7l-0.9-1.5c0.5-0.6,1.1-0.9,1.9-1s1.6,0,2.6,0.3c1.4,0.5,2.3,1.2,2.9,2.1c0.5,0.9,0.6,2,0.2,3.1
		c-0.4,1.1-1.4,2.2-3,3.5l-5.1,3.9l5.6,2l-0.6,1.8L767.2,110.3z"/>
	<path fill="#FFFFFF" d="M780.3,106.6c0.7-2.1,1.8-3.6,3.1-4.6c1.3-1,2.7-1.2,4.2-0.7c1.5,0.5,2.4,1.5,2.8,2.8
		c0.4,1.4,0,3.4-0.9,6.1c-0.8,2.3-1.9,4-3.2,5c-1.3,1-2.7,1.3-4.2,0.7c-1.5-0.6-2.5-1.5-2.9-2.9
		C778.9,111.8,779.2,109.6,780.3,106.6z M782.2,107.4c-1.4,4-1.3,6.2,0.4,6.9c1,0.4,1.8,0.2,2.6-0.5c0.8-0.7,1.6-2.2,2.4-4.4
		c0.6-1.5,0.9-2.7,1-3.4c0.1-0.8,0-1.4-0.3-1.9c-0.3-0.5-0.7-0.9-1.3-1.1C785.1,102.3,783.6,103.8,782.2,107.4z"/>
</g>
<g>
	<path fill="#FFFFFF" d="M728.1,98.8l3-11.3l-3.5,1.1l0.5-1.9c0.9-0.2,1.8-0.5,2.8-0.9c1-0.4,1.9-0.9,2.5-1.4l0.6,0.2l-4,14.7
		L728.1,98.8z"/>
	<path fill="#FFFFFF" d="M738.1,93.8l-0.6-0.7l1.9-7.1l7.3,2l-0.5,1.7l-5.4-1.4l-1,3.6c0.6-0.2,1.3-0.3,2,0c1.4,0.4,2.3,1.1,2.8,2.1
		c0.5,1,0.5,2.3,0.1,3.8c-1,3.7-3.1,5.1-6.4,4.2c-1.4-0.4-2.4-1.1-3.1-2.1l1.2-1.5c0.7,1,1.5,1.6,2.3,1.8c1.9,0.5,3.1-0.4,3.8-2.8
		c0.6-2.2,0-3.5-1.9-4C740,93,739.1,93.2,738.1,93.8z"/>
</g>
<g>
	<path fill="#FFFFFF" d="M683.9,89.5l2-11.5l-3.4,1.4l0.3-1.9c0.8-0.3,1.8-0.6,2.7-1.2c1-0.5,1.8-1.1,2.4-1.6l0.6,0.1l-2.7,15
		L683.9,89.5z"/>
	<path fill="#FFFFFF" d="M691.9,82.7c0.4-2.2,1.1-3.8,2.2-5c1.1-1.2,2.5-1.7,4-1.4c1.6,0.3,2.6,1,3.2,2.3c0.6,1.3,0.6,3.3,0.1,6.1
		c-0.4,2.4-1.2,4.3-2.2,5.5c-1.1,1.2-2.4,1.7-4,1.5c-1.6-0.3-2.7-1.1-3.3-2.3C691.3,88.1,691.3,85.9,691.9,82.7z M693.9,83.3
		c-0.7,4.1-0.2,6.4,1.6,6.7c1,0.2,1.8-0.1,2.5-1c0.6-0.8,1.2-2.4,1.6-4.7c0.3-1.6,0.4-2.8,0.3-3.5c-0.1-0.8-0.3-1.4-0.6-1.8
		c-0.3-0.5-0.8-0.7-1.5-0.8C695.9,77.7,694.6,79.5,693.9,83.3z"/>
</g>
<g>
	<path fill="#FFFFFF" d="M642.6,76.5l-0.7-0.5l0.6-7.3l7.5,0.7l-0.2,1.8l-5.6-0.5l-0.3,3.7c0.5-0.3,1.2-0.5,2-0.4
		c1.4,0.1,2.4,0.6,3.1,1.5c0.7,0.9,0.9,2.1,0.8,3.7c-0.3,3.8-2.2,5.5-5.6,5.3c-1.4-0.1-2.6-0.6-3.4-1.5l0.9-1.7
		c0.9,0.8,1.7,1.3,2.6,1.4c1.9,0.2,3-1,3.2-3.4c0.2-2.3-0.7-3.5-2.6-3.6C644.3,75.5,643.4,75.8,642.6,76.5z"/>
</g>
</svg>
